<svg width="182" height="103" viewBox="0 0 182 103" fill="none" xmlns="http://www.w3.org/2000/svg">
<path d="M7.175 9.888L3.227 19.065C3.185 19.1677 3.129 19.247 3.059 19.303C2.989 19.359 2.88633 19.387 2.751 19.387H1.736L3.038 16.552L0.119 9.888H1.309C1.42567 9.888 1.51667 9.916 1.582 9.972C1.64733 10.028 1.694 10.091 1.722 10.161L3.528 14.431C3.56533 14.5383 3.60033 14.648 3.633 14.76C3.67033 14.8673 3.70067 14.9747 3.724 15.082C3.75667 14.97 3.79167 14.8603 3.829 14.753C3.86633 14.641 3.906 14.5313 3.948 14.424L5.691 10.161C5.72367 10.0817 5.775 10.0163 5.845 9.965C5.915 9.91367 5.99433 9.888 6.083 9.888H7.175ZM11.0447 9.776C11.5674 9.776 12.0387 9.86233 12.4587 10.035C12.8834 10.203 13.2427 10.448 13.5367 10.77C13.8354 11.0873 14.064 11.4723 14.2227 11.925C14.3814 12.373 14.4607 12.877 14.4607 13.437C14.4607 13.997 14.3814 14.5033 14.2227 14.956C14.064 15.4087 13.8354 15.7937 13.5367 16.111C13.2427 16.4283 12.8834 16.6733 12.4587 16.846C12.0387 17.014 11.5674 17.098 11.0447 17.098C10.5174 17.098 10.0414 17.014 9.61669 16.846C9.19669 16.6733 8.83735 16.4283 8.53869 16.111C8.24002 15.7937 8.00902 15.4087 7.84569 14.956C7.68702 14.5033 7.60769 13.997 7.60769 13.437C7.60769 12.877 7.68702 12.373 7.84569 11.925C8.00902 11.4723 8.24002 11.0873 8.53869 10.77C8.83735 10.448 9.19669 10.203 9.61669 10.035C10.0414 9.86233 10.5174 9.776 11.0447 9.776ZM11.0447 16.034C11.7167 16.034 12.2184 15.8077 12.5497 15.355C12.881 14.9023 13.0467 14.2653 13.0467 13.444C13.0467 12.6227 12.881 11.9857 12.5497 11.533C12.2184 11.0757 11.7167 10.847 11.0447 10.847C10.3634 10.847 9.85469 11.0757 9.51869 11.533C9.18735 11.9857 9.02169 12.6227 9.02169 13.444C9.02169 14.2653 9.18735 14.9023 9.51869 15.355C9.85469 15.8077 10.3634 16.034 11.0447 16.034ZM21.8994 9.888V17H21.0804C20.8937 17 20.7724 16.909 20.7164 16.727L20.6184 16.013C20.4644 16.1763 20.3034 16.3257 20.1354 16.461C19.9674 16.5963 19.7877 16.713 19.5964 16.811C19.4051 16.9043 19.2021 16.9767 18.9874 17.028C18.7727 17.084 18.5417 17.112 18.2944 17.112C17.9024 17.112 17.5571 17.0467 17.2584 16.916C16.9644 16.7853 16.7171 16.6033 16.5164 16.37C16.3157 16.132 16.1641 15.8473 16.0614 15.516C15.9587 15.1847 15.9074 14.8183 15.9074 14.417V9.888H17.2794V14.417C17.2794 14.9257 17.3961 15.3223 17.6294 15.607C17.8627 15.887 18.2197 16.027 18.7004 16.027C19.0504 16.027 19.3771 15.9453 19.6804 15.782C19.9837 15.614 20.2684 15.3853 20.5344 15.096V9.888H21.8994ZM29.8447 13.451C30.0874 13.451 30.2997 13.4183 30.4817 13.353C30.6684 13.2877 30.8224 13.1967 30.9437 13.08C31.0697 12.9587 31.1631 12.814 31.2237 12.646C31.2891 12.478 31.3217 12.2937 31.3217 12.093C31.3217 11.6823 31.1957 11.3557 30.9437 11.113C30.6964 10.8657 30.3301 10.742 29.8447 10.742C29.3641 10.742 28.9977 10.8657 28.7457 11.113C28.4984 11.3557 28.3747 11.6823 28.3747 12.093C28.3747 12.2937 28.4051 12.478 28.4657 12.646C28.5311 12.8093 28.6244 12.9517 28.7457 13.073C28.8717 13.1897 29.0257 13.283 29.2077 13.353C29.3944 13.4183 29.6067 13.451 29.8447 13.451ZM32.0217 17.371C32.0217 17.203 31.9751 17.07 31.8817 16.972C31.7884 16.8693 31.6601 16.79 31.4967 16.734C31.3381 16.6733 31.1514 16.6313 30.9367 16.608C30.7221 16.58 30.4957 16.559 30.2577 16.545C30.0244 16.531 29.7841 16.5193 29.5367 16.51C29.2894 16.496 29.0514 16.4727 28.8227 16.44C28.5801 16.5613 28.3794 16.7083 28.2207 16.881C28.0667 17.0537 27.9897 17.2567 27.9897 17.49C27.9897 17.6393 28.0271 17.7793 28.1017 17.91C28.1811 18.0407 28.3001 18.1527 28.4587 18.246C28.6221 18.344 28.8251 18.4187 29.0677 18.47C29.3151 18.526 29.6091 18.554 29.9497 18.554C30.2857 18.554 30.5821 18.5237 30.8387 18.463C31.0954 18.407 31.3101 18.3253 31.4827 18.218C31.6601 18.1153 31.7931 17.9917 31.8817 17.847C31.9751 17.7023 32.0217 17.5437 32.0217 17.371ZM33.4077 10.154V10.665C33.4077 10.833 33.3027 10.938 33.0927 10.98L32.3297 11.092C32.3951 11.2367 32.4464 11.3907 32.4837 11.554C32.5211 11.7127 32.5397 11.8807 32.5397 12.058C32.5397 12.408 32.4721 12.7253 32.3367 13.01C32.2014 13.29 32.0147 13.5303 31.7767 13.731C31.5387 13.9317 31.2541 14.0857 30.9227 14.193C30.5961 14.3003 30.2367 14.354 29.8447 14.354C29.5227 14.354 29.2217 14.319 28.9417 14.249C28.8017 14.333 28.6944 14.4263 28.6197 14.529C28.5497 14.627 28.5147 14.725 28.5147 14.823C28.5147 14.9863 28.5824 15.1077 28.7177 15.187C28.8577 15.2663 29.0374 15.3247 29.2567 15.362C29.4807 15.3947 29.7351 15.4157 30.0197 15.425C30.3091 15.4343 30.6007 15.4507 30.8947 15.474C31.1934 15.4927 31.4851 15.53 31.7697 15.586C32.0591 15.6373 32.3134 15.7237 32.5327 15.845C32.7567 15.9617 32.9364 16.125 33.0717 16.335C33.2117 16.5403 33.2817 16.8087 33.2817 17.14C33.2817 17.448 33.2047 17.7467 33.0507 18.036C32.9014 18.3253 32.6821 18.582 32.3927 18.806C32.1034 19.03 31.7511 19.2097 31.3357 19.345C30.9204 19.4803 30.4491 19.548 29.9217 19.548C29.3944 19.548 28.9347 19.4967 28.5427 19.394C28.1554 19.2913 27.8311 19.1537 27.5697 18.981C27.3131 18.8083 27.1194 18.6077 26.9887 18.379C26.8627 18.1503 26.7997 17.9123 26.7997 17.665C26.7997 17.3197 26.9071 17.028 27.1217 16.79C27.3364 16.5473 27.6327 16.3583 28.0107 16.223C27.8054 16.1297 27.6421 16.0037 27.5207 15.845C27.3994 15.6817 27.3387 15.467 27.3387 15.201C27.3387 15.0983 27.3574 14.9933 27.3947 14.886C27.4321 14.774 27.4881 14.6643 27.5627 14.557C27.6421 14.445 27.7377 14.34 27.8497 14.242C27.9664 14.144 28.0994 14.0553 28.2487 13.976C27.8987 13.78 27.6234 13.521 27.4227 13.199C27.2221 12.8723 27.1217 12.492 27.1217 12.058C27.1217 11.708 27.1894 11.393 27.3247 11.113C27.4601 10.833 27.6467 10.5927 27.8847 10.392C28.1274 10.1913 28.4144 10.0373 28.7457 9.93C29.0817 9.82267 29.4481 9.769 29.8447 9.769C30.4607 9.769 30.9904 9.89733 31.4337 10.154H33.4077ZM37.5818 9.776C38.1045 9.776 38.5758 9.86233 38.9958 10.035C39.4205 10.203 39.7798 10.448 40.0738 10.77C40.3725 11.0873 40.6011 11.4723 40.7598 11.925C40.9185 12.373 40.9978 12.877 40.9978 13.437C40.9978 13.997 40.9185 14.5033 40.7598 14.956C40.6011 15.4087 40.3725 15.7937 40.0738 16.111C39.7798 16.4283 39.4205 16.6733 38.9958 16.846C38.5758 17.014 38.1045 17.098 37.5818 17.098C37.0545 17.098 36.5785 17.014 36.1538 16.846C35.7338 16.6733 35.3745 16.4283 35.0758 16.111C34.7771 15.7937 34.5461 15.4087 34.3828 14.956C34.2241 14.5033 34.1448 13.997 34.1448 13.437C34.1448 12.877 34.2241 12.373 34.3828 11.925C34.5461 11.4723 34.7771 11.0873 35.0758 10.77C35.3745 10.448 35.7338 10.203 36.1538 10.035C36.5785 9.86233 37.0545 9.776 37.5818 9.776ZM37.5818 16.034C38.2538 16.034 38.7555 15.8077 39.0868 15.355C39.4181 14.9023 39.5838 14.2653 39.5838 13.444C39.5838 12.6227 39.4181 11.9857 39.0868 11.533C38.7555 11.0757 38.2538 10.847 37.5818 10.847C36.9005 10.847 36.3918 11.0757 36.0558 11.533C35.7245 11.9857 35.5588 12.6227 35.5588 13.444C35.5588 14.2653 35.7245 14.9023 36.0558 15.355C36.3918 15.8077 36.9005 16.034 37.5818 16.034ZM44.6108 17.112C44.0368 17.112 43.5934 16.951 43.2808 16.629C42.9728 16.307 42.8188 15.8473 42.8188 15.25V10.994H41.9928C41.9134 10.994 41.8458 10.9707 41.7898 10.924C41.7384 10.8727 41.7128 10.798 41.7128 10.7V10.147L42.8678 9.986L43.1758 7.865C43.1944 7.78567 43.2294 7.725 43.2808 7.683C43.3368 7.63633 43.4068 7.613 43.4908 7.613H44.1838V10H47.4318L47.7468 7.865C47.7608 7.78567 47.7934 7.725 47.8448 7.683C47.9008 7.63633 47.9708 7.613 48.0548 7.613H48.7548V10H50.7708V10.994H48.7548V15.159C48.7548 15.439 48.8224 15.649 48.9578 15.789C49.0931 15.9243 49.2704 15.992 49.4898 15.992C49.6158 15.992 49.7231 15.9757 49.8118 15.943C49.9051 15.9103 49.9844 15.8753 50.0498 15.838C50.1151 15.796 50.1711 15.7587 50.2178 15.726C50.2644 15.6933 50.3064 15.677 50.3438 15.677C50.3858 15.677 50.4208 15.6887 50.4488 15.712C50.4768 15.7307 50.5048 15.7633 50.5328 15.81L50.9388 16.468C50.7148 16.6733 50.4464 16.832 50.1338 16.944C49.8258 17.056 49.5061 17.112 49.1748 17.112C48.6008 17.112 48.1574 16.951 47.8448 16.629C47.5368 16.307 47.3828 15.8473 47.3828 15.25V10.994H44.1838V15.159C44.1838 15.439 44.2514 15.649 44.3868 15.789C44.5268 15.9243 44.7041 15.992 44.9188 15.992C45.0448 15.992 45.1521 15.9757 45.2408 15.943C45.3341 15.9103 45.4134 15.8753 45.4788 15.838C45.5441 15.796 45.6001 15.7587 45.6468 15.726C45.6934 15.6933 45.7354 15.677 45.7728 15.677C45.8194 15.677 45.8544 15.6887 45.8778 15.712C45.9058 15.7307 45.9338 15.7633 45.9618 15.81L46.3678 16.468C46.1438 16.6733 45.8778 16.832 45.5698 16.944C45.2618 17.056 44.9421 17.112 44.6108 17.112ZM55.8455 13.843C55.2901 13.8617 54.8188 13.906 54.4315 13.976C54.0441 14.0413 53.7291 14.13 53.4865 14.242C53.2438 14.354 53.0688 14.487 52.9615 14.641C52.8541 14.7903 52.8005 14.9583 52.8005 15.145C52.8005 15.3223 52.8285 15.4763 52.8845 15.607C52.9451 15.733 53.0245 15.838 53.1225 15.922C53.2251 16.0013 53.3441 16.0597 53.4795 16.097C53.6148 16.1343 53.7618 16.153 53.9205 16.153C54.1305 16.153 54.3218 16.132 54.4945 16.09C54.6718 16.048 54.8375 15.9897 54.9915 15.915C55.1455 15.8357 55.2925 15.74 55.4325 15.628C55.5725 15.516 55.7101 15.3877 55.8455 15.243V13.843ZM51.8415 10.882C52.2381 10.504 52.6675 10.2217 53.1295 10.035C53.5961 9.84833 54.1071 9.755 54.6625 9.755C55.0685 9.755 55.4278 9.82267 55.7405 9.958C56.0531 10.0887 56.3168 10.273 56.5315 10.511C56.7461 10.749 56.9071 11.0337 57.0145 11.365C57.1265 11.6963 57.1825 12.0627 57.1825 12.464V17H56.5735C56.4381 17 56.3355 16.979 56.2655 16.937C56.1955 16.8903 56.1395 16.8063 56.0975 16.685L55.9505 16.062C55.7685 16.23 55.5888 16.3793 55.4115 16.51C55.2341 16.636 55.0475 16.7457 54.8515 16.839C54.6601 16.9277 54.4548 16.9953 54.2355 17.042C54.0161 17.0887 53.7735 17.112 53.5075 17.112C53.2275 17.112 52.9638 17.0747 52.7165 17C52.4738 16.9207 52.2615 16.8017 52.0795 16.643C51.8975 16.4843 51.7528 16.286 51.6455 16.048C51.5428 15.81 51.4915 15.5323 51.4915 15.215C51.4915 14.935 51.5661 14.6667 51.7155 14.41C51.8695 14.1487 52.1168 13.9153 52.4575 13.71C52.8028 13.5047 53.2508 13.3367 53.8015 13.206C54.3568 13.0753 55.0381 13.0007 55.8455 12.982V12.464C55.8455 11.9273 55.7311 11.526 55.5025 11.26C55.2738 10.994 54.9378 10.861 54.4945 10.861C54.1958 10.861 53.9438 10.8983 53.7385 10.973C53.5378 11.0477 53.3628 11.1317 53.2135 11.225C53.0688 11.3137 52.9405 11.3953 52.8285 11.47C52.7211 11.5447 52.6091 11.582 52.4925 11.582C52.3991 11.582 52.3175 11.5563 52.2475 11.505C52.1821 11.4537 52.1285 11.393 52.0865 11.323L51.8415 10.882ZM63.9158 15.25C64.1398 15.544 64.3825 15.7493 64.6438 15.866C64.9051 15.9827 65.1898 16.041 65.4978 16.041C66.1325 16.041 66.6201 15.8147 66.9608 15.362C67.3061 14.9093 67.4788 14.2257 67.4788 13.311C67.4788 12.4663 67.3271 11.848 67.0238 11.456C66.7205 11.0593 66.2911 10.861 65.7358 10.861C65.3438 10.861 65.0031 10.9497 64.7138 11.127C64.4291 11.3043 64.1631 11.5563 63.9158 11.883V15.25ZM63.9158 10.868C64.2098 10.5413 64.5435 10.2777 64.9168 10.077C65.2901 9.87633 65.7148 9.776 66.1908 9.776C66.6061 9.776 66.9795 9.85767 67.3108 10.021C67.6468 10.1797 67.9315 10.4107 68.1648 10.714C68.3981 11.0127 68.5778 11.3767 68.7038 11.806C68.8298 12.2353 68.8928 12.7207 68.8928 13.262C68.8928 13.836 68.8205 14.3587 68.6758 14.83C68.5358 15.3013 68.3328 15.705 68.0668 16.041C67.8055 16.377 67.4858 16.6383 67.1078 16.825C66.7298 17.007 66.3051 17.098 65.8338 17.098C65.6051 17.098 65.3951 17.0747 65.2038 17.028C65.0125 16.986 64.8351 16.923 64.6718 16.839C64.5131 16.755 64.3661 16.6523 64.2308 16.531C64.0955 16.4097 63.9671 16.272 63.8458 16.118L63.7828 16.713C63.7455 16.9043 63.6288 17 63.4328 17H62.5508V6.668H63.9158V10.868ZM75.1231 12.653C75.1231 12.3823 75.0835 12.1327 75.0041 11.904C74.9295 11.6753 74.8175 11.477 74.6681 11.309C74.5188 11.141 74.3368 11.0103 74.1221 10.917C73.9075 10.8237 73.6601 10.777 73.3801 10.777C72.8061 10.777 72.3535 10.9427 72.0221 11.274C71.6955 11.6053 71.4878 12.065 71.3991 12.653H75.1231ZM76.2501 15.985C76.0821 16.181 75.8885 16.3513 75.6691 16.496C75.4498 16.636 75.2165 16.7503 74.9691 16.839C74.7218 16.9277 74.4651 16.993 74.1991 17.035C73.9378 17.077 73.6788 17.098 73.4221 17.098C72.9321 17.098 72.4771 17.0163 72.0571 16.853C71.6418 16.685 71.2801 16.4423 70.9721 16.125C70.6688 15.803 70.4308 15.4063 70.2581 14.935C70.0901 14.459 70.0061 13.913 70.0061 13.297C70.0061 12.8023 70.0831 12.3427 70.2371 11.918C70.3911 11.4887 70.6105 11.1153 70.8951 10.798C71.1845 10.4807 71.5368 10.231 71.9521 10.049C72.3675 9.867 72.8341 9.776 73.3521 9.776C73.7861 9.776 74.1851 9.84833 74.5491 9.993C74.9178 10.133 75.2351 10.3383 75.5011 10.609C75.7671 10.8797 75.9748 11.2133 76.1241 11.61C76.2781 12.0067 76.3551 12.4593 76.3551 12.968C76.3551 13.178 76.3318 13.3203 76.2851 13.395C76.2385 13.465 76.1521 13.5 76.0261 13.5H71.3641C71.3781 13.9247 71.4388 14.2957 71.5461 14.613C71.6535 14.9257 71.8005 15.187 71.9871 15.397C72.1785 15.607 72.4048 15.7633 72.6661 15.866C72.9275 15.9687 73.2191 16.02 73.5411 16.02C73.8445 16.02 74.1058 15.985 74.3251 15.915C74.5491 15.845 74.7405 15.7703 74.8991 15.691C75.0625 15.607 75.1978 15.53 75.3051 15.46C75.4171 15.39 75.5151 15.355 75.5991 15.355C75.7111 15.355 75.7975 15.397 75.8581 15.481L76.2501 15.985ZM82.6513 11.253C82.88 10.7863 83.1553 10.42 83.4773 10.154C83.7993 9.888 84.1866 9.755 84.6393 9.755C84.7933 9.755 84.938 9.77367 85.0733 9.811C85.2133 9.84367 85.3346 9.895 85.4373 9.965L85.3463 10.994C85.3136 11.12 85.2366 11.183 85.1153 11.183C85.05 11.183 84.952 11.1713 84.8213 11.148C84.6906 11.12 84.5506 11.106 84.4013 11.106C84.182 11.106 83.9883 11.1387 83.8203 11.204C83.6523 11.2647 83.5006 11.358 83.3653 11.484C83.2346 11.6053 83.118 11.757 83.0153 11.939C82.9126 12.1163 82.817 12.3193 82.7283 12.548V17H81.3633V9.888H82.1473C82.2966 9.888 82.397 9.916 82.4483 9.972C82.5043 10.0233 82.544 10.1167 82.5673 10.252L82.6513 11.253ZM90.9415 12.653C90.9415 12.3823 90.9018 12.1327 90.8225 11.904C90.7478 11.6753 90.6358 11.477 90.4865 11.309C90.3372 11.141 90.1552 11.0103 89.9405 10.917C89.7258 10.8237 89.4785 10.777 89.1985 10.777C88.6245 10.777 88.1718 10.9427 87.8405 11.274C87.5138 11.6053 87.3062 12.065 87.2175 12.653H90.9415ZM92.0685 15.985C91.9005 16.181 91.7068 16.3513 91.4875 16.496C91.2682 16.636 91.0348 16.7503 90.7875 16.839C90.5402 16.9277 90.2835 16.993 90.0175 17.035C89.7562 17.077 89.4972 17.098 89.2405 17.098C88.7505 17.098 88.2955 17.0163 87.8755 16.853C87.4602 16.685 87.0985 16.4423 86.7905 16.125C86.4872 15.803 86.2492 15.4063 86.0765 14.935C85.9085 14.459 85.8245 13.913 85.8245 13.297C85.8245 12.8023 85.9015 12.3427 86.0555 11.918C86.2095 11.4887 86.4288 11.1153 86.7135 10.798C87.0028 10.4807 87.3552 10.231 87.7705 10.049C88.1858 9.867 88.6525 9.776 89.1705 9.776C89.6045 9.776 90.0035 9.84833 90.3675 9.993C90.7362 10.133 91.0535 10.3383 91.3195 10.609C91.5855 10.8797 91.7932 11.2133 91.9425 11.61C92.0965 12.0067 92.1735 12.4593 92.1735 12.968C92.1735 13.178 92.1502 13.3203 92.1035 13.395C92.0568 13.465 91.9705 13.5 91.8445 13.5H87.1825C87.1965 13.9247 87.2572 14.2957 87.3645 14.613C87.4718 14.9257 87.6188 15.187 87.8055 15.397C87.9968 15.607 88.2232 15.7633 88.4845 15.866C88.7458 15.9687 89.0375 16.02 89.3595 16.02C89.6628 16.02 89.9242 15.985 90.1435 15.915C90.3675 15.845 90.5588 15.7703 90.7175 15.691C90.8808 15.607 91.0162 15.53 91.1235 15.46C91.2355 15.39 91.3335 15.355 91.4175 15.355C91.5295 15.355 91.6158 15.397 91.6765 15.481L92.0685 15.985ZM96.1396 13.451C96.3823 13.451 96.5946 13.4183 96.7766 13.353C96.9633 13.2877 97.1173 13.1967 97.2386 13.08C97.3646 12.9587 97.458 12.814 97.5186 12.646C97.584 12.478 97.6166 12.2937 97.6166 12.093C97.6166 11.6823 97.4906 11.3557 97.2386 11.113C96.9913 10.8657 96.625 10.742 96.1396 10.742C95.659 10.742 95.2926 10.8657 95.0406 11.113C94.7933 11.3557 94.6696 11.6823 94.6696 12.093C94.6696 12.2937 94.7 12.478 94.7606 12.646C94.826 12.8093 94.9193 12.9517 95.0406 13.073C95.1666 13.1897 95.3206 13.283 95.5026 13.353C95.6893 13.4183 95.9016 13.451 96.1396 13.451ZM98.3166 17.371C98.3166 17.203 98.27 17.07 98.1766 16.972C98.0833 16.8693 97.955 16.79 97.7916 16.734C97.633 16.6733 97.4463 16.6313 97.2316 16.608C97.017 16.58 96.7906 16.559 96.5526 16.545C96.3193 16.531 96.079 16.5193 95.8316 16.51C95.5843 16.496 95.3463 16.4727 95.1176 16.44C94.875 16.5613 94.6743 16.7083 94.5156 16.881C94.3616 17.0537 94.2846 17.2567 94.2846 17.49C94.2846 17.6393 94.322 17.7793 94.3966 17.91C94.476 18.0407 94.595 18.1527 94.7536 18.246C94.917 18.344 95.12 18.4187 95.3626 18.47C95.61 18.526 95.904 18.554 96.2446 18.554C96.5806 18.554 96.877 18.5237 97.1336 18.463C97.3903 18.407 97.605 18.3253 97.7776 18.218C97.955 18.1153 98.088 17.9917 98.1766 17.847C98.27 17.7023 98.3166 17.5437 98.3166 17.371ZM99.7026 10.154V10.665C99.7026 10.833 99.5976 10.938 99.3876 10.98L98.6246 11.092C98.69 11.2367 98.7413 11.3907 98.7786 11.554C98.816 11.7127 98.8346 11.8807 98.8346 12.058C98.8346 12.408 98.767 12.7253 98.6316 13.01C98.4963 13.29 98.3096 13.5303 98.0716 13.731C97.8336 13.9317 97.549 14.0857 97.2176 14.193C96.891 14.3003 96.5316 14.354 96.1396 14.354C95.8176 14.354 95.5166 14.319 95.2366 14.249C95.0966 14.333 94.9893 14.4263 94.9146 14.529C94.8446 14.627 94.8096 14.725 94.8096 14.823C94.8096 14.9863 94.8773 15.1077 95.0126 15.187C95.1526 15.2663 95.3323 15.3247 95.5516 15.362C95.7756 15.3947 96.03 15.4157 96.3146 15.425C96.604 15.4343 96.8956 15.4507 97.1896 15.474C97.4883 15.4927 97.78 15.53 98.0646 15.586C98.354 15.6373 98.6083 15.7237 98.8276 15.845C99.0516 15.9617 99.2313 16.125 99.3666 16.335C99.5066 16.5403 99.5766 16.8087 99.5766 17.14C99.5766 17.448 99.4996 17.7467 99.3456 18.036C99.1963 18.3253 98.977 18.582 98.6876 18.806C98.3983 19.03 98.046 19.2097 97.6306 19.345C97.2153 19.4803 96.744 19.548 96.2166 19.548C95.6893 19.548 95.2296 19.4967 94.8376 19.394C94.4503 19.2913 94.126 19.1537 93.8646 18.981C93.608 18.8083 93.4143 18.6077 93.2836 18.379C93.1576 18.1503 93.0946 17.9123 93.0946 17.665C93.0946 17.3197 93.202 17.028 93.4166 16.79C93.6313 16.5473 93.9276 16.3583 94.3056 16.223C94.1003 16.1297 93.937 16.0037 93.8156 15.845C93.6943 15.6817 93.6336 15.467 93.6336 15.201C93.6336 15.0983 93.6523 14.9933 93.6896 14.886C93.727 14.774 93.783 14.6643 93.8576 14.557C93.937 14.445 94.0326 14.34 94.1446 14.242C94.2613 14.144 94.3943 14.0553 94.5436 13.976C94.1936 13.78 93.9183 13.521 93.7176 13.199C93.517 12.8723 93.4166 12.492 93.4166 12.058C93.4166 11.708 93.4843 11.393 93.6196 11.113C93.755 10.833 93.9416 10.5927 94.1796 10.392C94.4223 10.1913 94.7093 10.0373 95.0406 9.93C95.3766 9.82267 95.743 9.769 96.1396 9.769C96.7556 9.769 97.2853 9.89733 97.7286 10.154H99.7026ZM102.383 9.888V17H101.018V9.888H102.383ZM102.642 7.69C102.642 7.816 102.616 7.93733 102.565 8.054C102.514 8.166 102.444 8.26633 102.355 8.355C102.271 8.439 102.171 8.50667 102.054 8.558C101.937 8.60467 101.816 8.628 101.69 8.628C101.564 8.628 101.445 8.60467 101.333 8.558C101.221 8.50667 101.121 8.439 101.032 8.355C100.948 8.26633 100.88 8.166 100.829 8.054C100.782 7.93733 100.759 7.816 100.759 7.69C100.759 7.55933 100.782 7.438 100.829 7.326C100.88 7.20933 100.948 7.109 101.032 7.025C101.121 6.93633 101.221 6.86867 101.333 6.822C101.445 6.77067 101.564 6.745 101.69 6.745C101.816 6.745 101.937 6.77067 102.054 6.822C102.171 6.86867 102.271 6.93633 102.355 7.025C102.444 7.109 102.514 7.20933 102.565 7.326C102.616 7.438 102.642 7.55933 102.642 7.69ZM108.552 11.113C108.515 11.1737 108.475 11.218 108.433 11.246C108.391 11.2693 108.338 11.281 108.272 11.281C108.198 11.281 108.114 11.2553 108.02 11.204C107.932 11.1527 107.822 11.0967 107.691 11.036C107.565 10.9753 107.416 10.9193 107.243 10.868C107.071 10.8167 106.865 10.791 106.627 10.791C106.431 10.791 106.252 10.8167 106.088 10.868C105.93 10.9147 105.794 10.9823 105.682 11.071C105.57 11.155 105.484 11.2577 105.423 11.379C105.363 11.4957 105.332 11.6217 105.332 11.757C105.332 11.9343 105.384 12.0813 105.486 12.198C105.594 12.3147 105.731 12.415 105.899 12.499C106.072 12.583 106.266 12.66 106.48 12.73C106.7 12.7953 106.921 12.8653 107.145 12.94C107.374 13.0147 107.596 13.101 107.81 13.199C108.03 13.2923 108.223 13.4113 108.391 13.556C108.564 13.696 108.702 13.8663 108.804 14.067C108.912 14.2677 108.965 14.5127 108.965 14.802C108.965 15.1333 108.905 15.4413 108.783 15.726C108.667 16.006 108.492 16.2487 108.258 16.454C108.03 16.6593 107.745 16.8203 107.404 16.937C107.064 17.0537 106.674 17.112 106.235 17.112C105.745 17.112 105.293 17.0303 104.877 16.867C104.462 16.7037 104.114 16.496 103.834 16.244L104.156 15.719C104.194 15.6537 104.24 15.6047 104.296 15.572C104.352 15.5347 104.427 15.516 104.52 15.516C104.609 15.516 104.7 15.5487 104.793 15.614C104.887 15.6793 104.999 15.7517 105.129 15.831C105.26 15.9057 105.419 15.9757 105.605 16.041C105.792 16.1017 106.025 16.132 106.305 16.132C106.539 16.132 106.742 16.104 106.914 16.048C107.087 15.9873 107.229 15.908 107.341 15.81C107.458 15.7073 107.544 15.5907 107.6 15.46C107.656 15.3293 107.684 15.1917 107.684 15.047C107.684 14.8603 107.631 14.7063 107.523 14.585C107.421 14.459 107.283 14.3517 107.11 14.263C106.942 14.1743 106.749 14.0973 106.529 14.032C106.31 13.9667 106.086 13.8967 105.857 13.822C105.629 13.7473 105.405 13.661 105.185 13.563C104.966 13.465 104.77 13.3413 104.597 13.192C104.429 13.0427 104.292 12.8607 104.184 12.646C104.082 12.4313 104.03 12.17 104.03 11.862C104.03 11.5867 104.086 11.323 104.198 11.071C104.315 10.819 104.481 10.5973 104.695 10.406C104.915 10.2147 105.183 10.063 105.5 9.951C105.822 9.83433 106.189 9.776 106.599 9.776C107.071 9.776 107.495 9.85067 107.873 10C108.256 10.1493 108.583 10.3547 108.853 10.616L108.552 11.113ZM112.669 17.112C112.095 17.112 111.652 16.951 111.339 16.629C111.031 16.307 110.877 15.8473 110.877 15.25V10.994H110.051C109.972 10.994 109.904 10.9707 109.848 10.924C109.797 10.8727 109.771 10.798 109.771 10.7V10.147L110.926 9.986L111.234 7.865C111.253 7.78567 111.288 7.725 111.339 7.683C111.395 7.63633 111.465 7.613 111.549 7.613H112.242V10H114.258V10.994H112.242V15.159C112.242 15.439 112.31 15.649 112.445 15.789C112.585 15.9243 112.763 15.992 112.977 15.992C113.103 15.992 113.211 15.9757 113.299 15.943C113.393 15.9103 113.472 15.8753 113.537 15.838C113.603 15.796 113.659 15.7587 113.705 15.726C113.752 15.6933 113.794 15.677 113.831 15.677C113.878 15.677 113.913 15.6887 113.936 15.712C113.964 15.7307 113.992 15.7633 114.02 15.81L114.426 16.468C114.202 16.6733 113.936 16.832 113.628 16.944C113.32 17.056 113.001 17.112 112.669 17.112ZM120.186 12.653C120.186 12.3823 120.146 12.1327 120.067 11.904C119.992 11.6753 119.88 11.477 119.731 11.309C119.581 11.141 119.399 11.0103 119.185 10.917C118.97 10.8237 118.723 10.777 118.443 10.777C117.869 10.777 117.416 10.9427 117.085 11.274C116.758 11.6053 116.55 12.065 116.462 12.653H120.186ZM121.313 15.985C121.145 16.181 120.951 16.3513 120.732 16.496C120.512 16.636 120.279 16.7503 120.032 16.839C119.784 16.9277 119.528 16.993 119.262 17.035C119 17.077 118.741 17.098 118.485 17.098C117.995 17.098 117.54 17.0163 117.12 16.853C116.704 16.685 116.343 16.4423 116.035 16.125C115.731 15.803 115.493 15.4063 115.321 14.935C115.153 14.459 115.069 13.913 115.069 13.297C115.069 12.8023 115.146 12.3427 115.3 11.918C115.454 11.4887 115.673 11.1153 115.958 10.798C116.247 10.4807 116.599 10.231 117.015 10.049C117.43 9.867 117.897 9.776 118.415 9.776C118.849 9.776 119.248 9.84833 119.612 9.993C119.98 10.133 120.298 10.3383 120.564 10.609C120.83 10.8797 121.037 11.2133 121.187 11.61C121.341 12.0067 121.418 12.4593 121.418 12.968C121.418 13.178 121.394 13.3203 121.348 13.395C121.301 13.465 121.215 13.5 121.089 13.5H116.427C116.441 13.9247 116.501 14.2957 116.609 14.613C116.716 14.9257 116.863 15.187 117.05 15.397C117.241 15.607 117.467 15.7633 117.729 15.866C117.99 15.9687 118.282 16.02 118.604 16.02C118.907 16.02 119.168 15.985 119.388 15.915C119.612 15.845 119.803 15.7703 119.962 15.691C120.125 15.607 120.26 15.53 120.368 15.46C120.48 15.39 120.578 15.355 120.662 15.355C120.774 15.355 120.86 15.397 120.921 15.481L121.313 15.985ZM124.173 11.253C124.401 10.7863 124.677 10.42 124.999 10.154C125.321 9.888 125.708 9.755 126.161 9.755C126.315 9.755 126.459 9.77367 126.595 9.811C126.735 9.84367 126.856 9.895 126.959 9.965L126.868 10.994C126.835 11.12 126.758 11.183 126.637 11.183C126.571 11.183 126.473 11.1713 126.343 11.148C126.212 11.12 126.072 11.106 125.923 11.106C125.703 11.106 125.51 11.1387 125.342 11.204C125.174 11.2647 125.022 11.358 124.887 11.484C124.756 11.6053 124.639 11.757 124.537 11.939C124.434 12.1163 124.338 12.3193 124.25 12.548V17H122.885V9.888H123.669C123.818 9.888 123.918 9.916 123.97 9.972C124.026 10.0233 124.065 10.1167 124.089 10.252L124.173 11.253ZM132.463 12.653C132.463 12.3823 132.423 12.1327 132.344 11.904C132.269 11.6753 132.157 11.477 132.008 11.309C131.859 11.141 131.677 11.0103 131.462 10.917C131.247 10.8237 131 10.777 130.72 10.777C130.146 10.777 129.693 10.9427 129.362 11.274C129.035 11.6053 128.828 12.065 128.739 12.653H132.463ZM133.59 15.985C133.422 16.181 133.228 16.3513 133.009 16.496C132.79 16.636 132.556 16.7503 132.309 16.839C132.062 16.9277 131.805 16.993 131.539 17.035C131.278 17.077 131.019 17.098 130.762 17.098C130.272 17.098 129.817 17.0163 129.397 16.853C128.982 16.685 128.62 16.4423 128.312 16.125C128.009 15.803 127.771 15.4063 127.598 14.935C127.43 14.459 127.346 13.913 127.346 13.297C127.346 12.8023 127.423 12.3427 127.577 11.918C127.731 11.4887 127.95 11.1153 128.235 10.798C128.524 10.4807 128.877 10.231 129.292 10.049C129.707 9.867 130.174 9.776 130.692 9.776C131.126 9.776 131.525 9.84833 131.889 9.993C132.258 10.133 132.575 10.3383 132.841 10.609C133.107 10.8797 133.315 11.2133 133.464 11.61C133.618 12.0067 133.695 12.4593 133.695 12.968C133.695 13.178 133.672 13.3203 133.625 13.395C133.578 13.465 133.492 13.5 133.366 13.5H128.704C128.718 13.9247 128.779 14.2957 128.886 14.613C128.993 14.9257 129.14 15.187 129.327 15.397C129.518 15.607 129.745 15.7633 130.006 15.866C130.267 15.9687 130.559 16.02 130.881 16.02C131.184 16.02 131.446 15.985 131.665 15.915C131.889 15.845 132.08 15.7703 132.239 15.691C132.402 15.607 132.538 15.53 132.645 15.46C132.757 15.39 132.855 15.355 132.939 15.355C133.051 15.355 133.137 15.397 133.198 15.481L133.59 15.985ZM139.747 11.61C139.523 11.316 139.28 11.1107 139.019 10.994C138.762 10.8773 138.473 10.819 138.151 10.819C137.526 10.819 137.04 11.0453 136.695 11.498C136.354 11.946 136.184 12.6017 136.184 13.465C136.184 13.9177 136.221 14.305 136.296 14.627C136.375 14.9443 136.487 15.2057 136.632 15.411C136.781 15.6117 136.963 15.761 137.178 15.859C137.393 15.9523 137.635 15.999 137.906 15.999C138.303 15.999 138.646 15.9103 138.935 15.733C139.224 15.5557 139.495 15.306 139.747 14.984V11.61ZM141.119 6.668V17H140.293C140.102 17 139.983 16.909 139.936 16.727L139.817 15.908C139.514 16.2673 139.168 16.5567 138.781 16.776C138.398 16.9907 137.955 17.098 137.451 17.098C137.045 17.098 136.676 17.0187 136.345 16.86C136.018 16.7013 135.738 16.4703 135.505 16.167C135.272 15.859 135.092 15.4787 134.966 15.026C134.84 14.5733 134.777 14.053 134.777 13.465C134.777 12.9377 134.847 12.4477 134.987 11.995C135.127 11.5423 135.33 11.1503 135.596 10.819C135.862 10.4877 136.184 10.2287 136.562 10.042C136.94 9.85067 137.367 9.755 137.843 9.755C138.272 9.755 138.636 9.825 138.935 9.965C139.238 10.105 139.509 10.3033 139.747 10.56V6.668H141.119ZM4.781 36.843C4.22567 36.8617 3.75433 36.906 3.367 36.976C2.97967 37.0413 2.66467 37.13 2.422 37.242C2.17933 37.354 2.00433 37.487 1.897 37.641C1.78967 37.7903 1.736 37.9583 1.736 38.145C1.736 38.3223 1.764 38.4763 1.82 38.607C1.88067 38.733 1.96 38.838 2.058 38.922C2.16067 39.0013 2.27967 39.0597 2.415 39.097C2.55033 39.1343 2.69733 39.153 2.856 39.153C3.066 39.153 3.25733 39.132 3.43 39.09C3.60733 39.048 3.773 38.9897 3.927 38.915C4.081 38.8357 4.228 38.74 4.368 38.628C4.508 38.516 4.64567 38.3877 4.781 38.243V36.843ZM0.777 33.882C1.17367 33.504 1.603 33.2217 2.065 33.035C2.53167 32.8483 3.04267 32.755 3.598 32.755C4.004 32.755 4.36333 32.8227 4.676 32.958C4.98867 33.0887 5.25233 33.273 5.467 33.511C5.68167 33.749 5.84267 34.0337 5.95 34.365C6.062 34.6963 6.118 35.0627 6.118 35.464V40H5.509C5.37367 40 5.271 39.979 5.201 39.937C5.131 39.8903 5.075 39.8063 5.033 39.685L4.886 39.062C4.704 39.23 4.52433 39.3793 4.347 39.51C4.16967 39.636 3.983 39.7457 3.787 39.839C3.59567 39.9277 3.39033 39.9953 3.171 40.042C2.95167 40.0887 2.709 40.112 2.443 40.112C2.163 40.112 1.89933 40.0747 1.652 40C1.40933 39.9207 1.197 39.8017 1.015 39.643C0.833 39.4843 0.688333 39.286 0.581 39.048C0.478333 38.81 0.427 38.5323 0.427 38.215C0.427 37.935 0.501667 37.6667 0.651 37.41C0.805 37.1487 1.05233 36.9153 1.393 36.71C1.73833 36.5047 2.18633 36.3367 2.737 36.206C3.29233 36.0753 3.97367 36.0007 4.781 35.982V35.464C4.781 34.9273 4.66667 34.526 4.438 34.26C4.20933 33.994 3.87333 33.861 3.43 33.861C3.13133 33.861 2.87933 33.8983 2.674 33.973C2.47333 34.0477 2.29833 34.1317 2.149 34.225C2.00433 34.3137 1.876 34.3953 1.764 34.47C1.65667 34.5447 1.54467 34.582 1.428 34.582C1.33467 34.582 1.253 34.5563 1.183 34.505C1.11767 34.4537 1.064 34.393 1.022 34.323L0.777 33.882ZM10.0756 40.112C9.50163 40.112 9.05829 39.951 8.74563 39.629C8.43763 39.307 8.28363 38.8473 8.28363 38.25V33.994H7.45763C7.37829 33.994 7.31063 33.9707 7.25463 33.924C7.20329 33.8727 7.17763 33.798 7.17763 33.7V33.147L8.33263 32.986L8.64062 30.865C8.65929 30.7857 8.69429 30.725 8.74563 30.683C8.80163 30.6363 8.87163 30.613 8.95563 30.613H9.64863V33H11.6646V33.994H9.64863V38.159C9.64863 38.439 9.71629 38.649 9.85163 38.789C9.99163 38.9243 10.169 38.992 10.3836 38.992C10.5096 38.992 10.617 38.9757 10.7056 38.943C10.799 38.9103 10.8783 38.8753 10.9436 38.838C11.009 38.796 11.065 38.7587 11.1116 38.726C11.1583 38.6933 11.2003 38.677 11.2376 38.677C11.2843 38.677 11.3193 38.6887 11.3426 38.712C11.3706 38.7307 11.3986 38.7633 11.4266 38.81L11.8326 39.468C11.6086 39.6733 11.3426 39.832 11.0346 39.944C10.7266 40.056 10.407 40.112 10.0756 40.112ZM25.5139 34.974C25.5139 35.7253 25.3926 36.409 25.1499 37.025C24.9119 37.641 24.5736 38.1707 24.1349 38.614C23.6962 39.0527 23.1712 39.3933 22.5599 39.636C21.9486 39.8787 21.2696 40 20.5229 40H16.7429V29.948H20.5229C21.2696 29.948 21.9486 30.0693 22.5599 30.312C23.1712 30.5547 23.6962 30.8977 24.1349 31.341C24.5736 31.7797 24.9119 32.3093 25.1499 32.93C25.3926 33.546 25.5139 34.2273 25.5139 34.974ZM23.9879 34.974C23.9879 34.3767 23.9062 33.8423 23.7429 33.371C23.5796 32.895 23.3462 32.4937 23.0429 32.167C22.7442 31.8357 22.3802 31.5837 21.9509 31.411C21.5262 31.2383 21.0502 31.152 20.5229 31.152H18.2409V38.796H20.5229C21.0502 38.796 21.5262 38.7097 21.9509 38.537C22.3802 38.3643 22.7442 38.1147 23.0429 37.788C23.3462 37.4567 23.5796 37.0553 23.7429 36.584C23.9062 36.1127 23.9879 35.576 23.9879 34.974ZM32.9189 32.888V40H32.0999C31.9133 40 31.7919 39.909 31.7359 39.727L31.6379 39.013C31.4839 39.1763 31.3229 39.3257 31.1549 39.461C30.9869 39.5963 30.8073 39.713 30.6159 39.811C30.4246 39.9043 30.2216 39.9767 30.0069 40.028C29.7923 40.084 29.5613 40.112 29.3139 40.112C28.9219 40.112 28.5766 40.0467 28.2779 39.916C27.9839 39.7853 27.7366 39.6033 27.5359 39.37C27.3353 39.132 27.1836 38.8473 27.0809 38.516C26.9783 38.1847 26.9269 37.8183 26.9269 37.417V32.888H28.2989V37.417C28.2989 37.9257 28.4156 38.3223 28.6489 38.607C28.8823 38.887 29.2393 39.027 29.7199 39.027C30.0699 39.027 30.3966 38.9453 30.6999 38.782C31.0033 38.614 31.2879 38.3853 31.5539 38.096V32.888H32.9189ZM37.8552 32.776C38.3779 32.776 38.8492 32.8623 39.2692 33.035C39.6939 33.203 40.0532 33.448 40.3472 33.77C40.6459 34.0873 40.8746 34.4723 41.0332 34.925C41.1919 35.373 41.2712 35.877 41.2712 36.437C41.2712 36.997 41.1919 37.5033 41.0332 37.956C40.8746 38.4087 40.6459 38.7937 40.3472 39.111C40.0532 39.4283 39.6939 39.6733 39.2692 39.846C38.8492 40.014 38.3779 40.098 37.8552 40.098C37.3279 40.098 36.8519 40.014 36.4272 39.846C36.0072 39.6733 35.6479 39.4283 35.3492 39.111C35.0506 38.7937 34.8196 38.4087 34.6562 37.956C34.4976 37.5033 34.4182 36.997 34.4182 36.437C34.4182 35.877 34.4976 35.373 34.6562 34.925C34.8196 34.4723 35.0506 34.0873 35.3492 33.77C35.6479 33.448 36.0072 33.203 36.4272 33.035C36.8519 32.8623 37.3279 32.776 37.8552 32.776ZM37.8552 39.034C38.5272 39.034 39.0289 38.8077 39.3602 38.355C39.6916 37.9023 39.8572 37.2653 39.8572 36.444C39.8572 35.6227 39.6916 34.9857 39.3602 34.533C39.0289 34.0757 38.5272 33.847 37.8552 33.847C37.1739 33.847 36.6652 34.0757 36.3292 34.533C35.9979 34.9857 35.8322 35.6227 35.8322 36.444C35.8322 37.2653 35.9979 37.9023 36.3292 38.355C36.6652 38.8077 37.1739 39.034 37.8552 39.034ZM44.1949 29.668V40H42.8229V29.668H44.1949ZM47.5725 32.888V40H46.2075V32.888H47.5725ZM47.8315 30.69C47.8315 30.816 47.8059 30.9373 47.7545 31.054C47.7032 31.166 47.6332 31.2663 47.5445 31.355C47.4605 31.439 47.3602 31.5067 47.2435 31.558C47.1269 31.6047 47.0055 31.628 46.8795 31.628C46.7535 31.628 46.6345 31.6047 46.5225 31.558C46.4105 31.5067 46.3102 31.439 46.2215 31.355C46.1375 31.2663 46.0699 31.166 46.0185 31.054C45.9719 30.9373 45.9485 30.816 45.9485 30.69C45.9485 30.5593 45.9719 30.438 46.0185 30.326C46.0699 30.2093 46.1375 30.109 46.2215 30.025C46.3102 29.9363 46.4105 29.8687 46.5225 29.822C46.6345 29.7707 46.7535 29.745 46.8795 29.745C47.0055 29.745 47.1269 29.7707 47.2435 29.822C47.3602 29.8687 47.4605 29.9363 47.5445 30.025C47.6332 30.109 47.7032 30.2093 47.7545 30.326C47.8059 30.438 47.8315 30.5593 47.8315 30.69ZM50.8298 33.875C50.9838 33.7117 51.1448 33.5623 51.3128 33.427C51.4808 33.2917 51.6582 33.1773 51.8448 33.084C52.0362 32.986 52.2392 32.9113 52.4538 32.86C52.6732 32.804 52.9065 32.776 53.1538 32.776C53.5458 32.776 53.8888 32.8413 54.1828 32.972C54.4815 33.1027 54.7312 33.287 54.9318 33.525C55.1325 33.7583 55.2842 34.0407 55.3868 34.372C55.4895 34.7033 55.5408 35.0697 55.5408 35.471V40H54.1688V35.471C54.1688 34.9623 54.0522 34.568 53.8188 34.288C53.5855 34.0033 53.2285 33.861 52.7478 33.861C52.3978 33.861 52.0688 33.945 51.7608 34.113C51.4575 34.2763 51.1752 34.5003 50.9138 34.785V40H49.5488V32.888H50.3678C50.5592 32.888 50.6782 32.979 50.7248 33.161L50.8298 33.875ZM59.8818 36.451C60.1245 36.451 60.3368 36.4183 60.5188 36.353C60.7055 36.2877 60.8595 36.1967 60.9808 36.08C61.1068 35.9587 61.2002 35.814 61.2608 35.646C61.3262 35.478 61.3588 35.2937 61.3588 35.093C61.3588 34.6823 61.2328 34.3557 60.9808 34.113C60.7335 33.8657 60.3672 33.742 59.8818 33.742C59.4012 33.742 59.0348 33.8657 58.7828 34.113C58.5355 34.3557 58.4118 34.6823 58.4118 35.093C58.4118 35.2937 58.4422 35.478 58.5028 35.646C58.5682 35.8093 58.6615 35.9517 58.7828 36.073C58.9088 36.1897 59.0628 36.283 59.2448 36.353C59.4315 36.4183 59.6438 36.451 59.8818 36.451ZM62.0588 40.371C62.0588 40.203 62.0122 40.07 61.9188 39.972C61.8255 39.8693 61.6972 39.79 61.5338 39.734C61.3752 39.6733 61.1885 39.6313 60.9738 39.608C60.7592 39.58 60.5328 39.559 60.2948 39.545C60.0615 39.531 59.8212 39.5193 59.5738 39.51C59.3265 39.496 59.0885 39.4727 58.8598 39.44C58.6172 39.5613 58.4165 39.7083 58.2578 39.881C58.1038 40.0537 58.0268 40.2567 58.0268 40.49C58.0268 40.6393 58.0642 40.7793 58.1388 40.91C58.2182 41.0407 58.3372 41.1527 58.4958 41.246C58.6592 41.344 58.8622 41.4187 59.1048 41.47C59.3522 41.526 59.6462 41.554 59.9868 41.554C60.3228 41.554 60.6192 41.5237 60.8758 41.463C61.1325 41.407 61.3472 41.3253 61.5198 41.218C61.6972 41.1153 61.8302 40.9917 61.9188 40.847C62.0122 40.7023 62.0588 40.5437 62.0588 40.371ZM63.4448 33.154V33.665C63.4448 33.833 63.3398 33.938 63.1298 33.98L62.3668 34.092C62.4322 34.2367 62.4835 34.3907 62.5208 34.554C62.5582 34.7127 62.5768 34.8807 62.5768 35.058C62.5768 35.408 62.5092 35.7253 62.3738 36.01C62.2385 36.29 62.0518 36.5303 61.8138 36.731C61.5758 36.9317 61.2912 37.0857 60.9598 37.193C60.6332 37.3003 60.2738 37.354 59.8818 37.354C59.5598 37.354 59.2588 37.319 58.9788 37.249C58.8388 37.333 58.7315 37.4263 58.6568 37.529C58.5868 37.627 58.5518 37.725 58.5518 37.823C58.5518 37.9863 58.6195 38.1077 58.7548 38.187C58.8948 38.2663 59.0745 38.3247 59.2938 38.362C59.5178 38.3947 59.7722 38.4157 60.0568 38.425C60.3462 38.4343 60.6378 38.4507 60.9318 38.474C61.2305 38.4927 61.5222 38.53 61.8068 38.586C62.0962 38.6373 62.3505 38.7237 62.5698 38.845C62.7938 38.9617 62.9735 39.125 63.1088 39.335C63.2488 39.5403 63.3188 39.8087 63.3188 40.14C63.3188 40.448 63.2418 40.7467 63.0878 41.036C62.9385 41.3253 62.7192 41.582 62.4298 41.806C62.1405 42.03 61.7882 42.2097 61.3728 42.345C60.9575 42.4803 60.4862 42.548 59.9588 42.548C59.4315 42.548 58.9718 42.4967 58.5798 42.394C58.1925 42.2913 57.8682 42.1537 57.6068 41.981C57.3502 41.8083 57.1565 41.6077 57.0258 41.379C56.8998 41.1503 56.8368 40.9123 56.8368 40.665C56.8368 40.3197 56.9442 40.028 57.1588 39.79C57.3735 39.5473 57.6698 39.3583 58.0478 39.223C57.8425 39.1297 57.6792 39.0037 57.5578 38.845C57.4365 38.6817 57.3758 38.467 57.3758 38.201C57.3758 38.0983 57.3945 37.9933 57.4318 37.886C57.4692 37.774 57.5252 37.6643 57.5998 37.557C57.6792 37.445 57.7748 37.34 57.8868 37.242C58.0035 37.144 58.1365 37.0553 58.2858 36.976C57.9358 36.78 57.6605 36.521 57.4598 36.199C57.2592 35.8723 57.1588 35.492 57.1588 35.058C57.1588 34.708 57.2265 34.393 57.3618 34.113C57.4972 33.833 57.6838 33.5927 57.9218 33.392C58.1645 33.1913 58.4515 33.0373 58.7828 32.93C59.1188 32.8227 59.4852 32.769 59.8818 32.769C60.4978 32.769 61.0275 32.8973 61.4708 33.154H63.4448ZM67.6189 32.776C68.1416 32.776 68.6129 32.8623 69.0329 33.035C69.4576 33.203 69.8169 33.448 70.1109 33.77C70.4096 34.0873 70.6382 34.4723 70.7969 34.925C70.9556 35.373 71.0349 35.877 71.0349 36.437C71.0349 36.997 70.9556 37.5033 70.7969 37.956C70.6382 38.4087 70.4096 38.7937 70.1109 39.111C69.8169 39.4283 69.4576 39.6733 69.0329 39.846C68.6129 40.014 68.1416 40.098 67.6189 40.098C67.0916 40.098 66.6156 40.014 66.1909 39.846C65.7709 39.6733 65.4116 39.4283 65.1129 39.111C64.8142 38.7937 64.5832 38.4087 64.4199 37.956C64.2612 37.5033 64.1819 36.997 64.1819 36.437C64.1819 35.877 64.2612 35.373 64.4199 34.925C64.5832 34.4723 64.8142 34.0873 65.1129 33.77C65.4116 33.448 65.7709 33.203 66.1909 33.035C66.6156 32.8623 67.0916 32.776 67.6189 32.776ZM67.6189 39.034C68.2909 39.034 68.7926 38.8077 69.1239 38.355C69.4552 37.9023 69.6209 37.2653 69.6209 36.444C69.6209 35.6227 69.4552 34.9857 69.1239 34.533C68.7926 34.0757 68.2909 33.847 67.6189 33.847C66.9376 33.847 66.4289 34.0757 66.0929 34.533C65.7616 34.9857 65.5959 35.6227 65.5959 36.444C65.5959 37.2653 65.7616 37.9023 66.0929 38.355C66.4289 38.8077 66.9376 39.034 67.6189 39.034ZM77.4646 38.25C77.6886 38.544 77.9313 38.7493 78.1926 38.866C78.454 38.9827 78.7386 39.041 79.0466 39.041C79.6813 39.041 80.169 38.8147 80.5096 38.362C80.855 37.9093 81.0276 37.2257 81.0276 36.311C81.0276 35.4663 80.876 34.848 80.5726 34.456C80.2693 34.0593 79.84 33.861 79.2846 33.861C78.8926 33.861 78.552 33.9497 78.2626 34.127C77.978 34.3043 77.712 34.5563 77.4646 34.883V38.25ZM77.4646 33.868C77.7586 33.5413 78.0923 33.2777 78.4656 33.077C78.839 32.8763 79.2636 32.776 79.7396 32.776C80.155 32.776 80.5283 32.8577 80.8596 33.021C81.1956 33.1797 81.4803 33.4107 81.7136 33.714C81.947 34.0127 82.1266 34.3767 82.2526 34.806C82.3786 35.2353 82.4416 35.7207 82.4416 36.262C82.4416 36.836 82.3693 37.3587 82.2246 37.83C82.0846 38.3013 81.8816 38.705 81.6156 39.041C81.3543 39.377 81.0346 39.6383 80.6566 39.825C80.2786 40.007 79.854 40.098 79.3826 40.098C79.154 40.098 78.944 40.0747 78.7526 40.028C78.5613 39.986 78.384 39.923 78.2206 39.839C78.062 39.755 77.915 39.6523 77.7796 39.531C77.6443 39.4097 77.516 39.272 77.3946 39.118L77.3316 39.713C77.2943 39.9043 77.1776 40 76.9816 40H76.0996V29.668H77.4646V33.868ZM88.672 35.653C88.672 35.3823 88.6323 35.1327 88.553 34.904C88.4783 34.6753 88.3663 34.477 88.217 34.309C88.0676 34.141 87.8856 34.0103 87.671 33.917C87.4563 33.8237 87.209 33.777 86.929 33.777C86.355 33.777 85.9023 33.9427 85.571 34.274C85.2443 34.6053 85.0366 35.065 84.948 35.653H88.672ZM89.799 38.985C89.631 39.181 89.4373 39.3513 89.218 39.496C88.9986 39.636 88.7653 39.7503 88.518 39.839C88.2706 39.9277 88.014 39.993 87.748 40.035C87.4866 40.077 87.2276 40.098 86.971 40.098C86.481 40.098 86.026 40.0163 85.606 39.853C85.1906 39.685 84.829 39.4423 84.521 39.125C84.2176 38.803 83.9796 38.4063 83.807 37.935C83.639 37.459 83.555 36.913 83.555 36.297C83.555 35.8023 83.632 35.3427 83.786 34.918C83.94 34.4887 84.1593 34.1153 84.444 33.798C84.7333 33.4807 85.0856 33.231 85.501 33.049C85.9163 32.867 86.383 32.776 86.901 32.776C87.335 32.776 87.734 32.8483 88.098 32.993C88.4666 33.133 88.784 33.3383 89.05 33.609C89.316 33.8797 89.5236 34.2133 89.673 34.61C89.827 35.0067 89.904 35.4593 89.904 35.968C89.904 36.178 89.8806 36.3203 89.834 36.395C89.7873 36.465 89.701 36.5 89.575 36.5H84.913C84.927 36.9247 84.9876 37.2957 85.095 37.613C85.2023 37.9257 85.3493 38.187 85.536 38.397C85.7273 38.607 85.9536 38.7633 86.215 38.866C86.4763 38.9687 86.768 39.02 87.09 39.02C87.3933 39.02 87.6546 38.985 87.874 38.915C88.098 38.845 88.2893 38.7703 88.448 38.691C88.6113 38.607 88.7466 38.53 88.854 38.46C88.966 38.39 89.064 38.355 89.148 38.355C89.26 38.355 89.3463 38.397 89.407 38.481L89.799 38.985ZM92.7361 33.791C93.0348 33.4877 93.3638 33.2427 93.7231 33.056C94.0871 32.8693 94.5048 32.776 94.9761 32.776C95.3681 32.776 95.7111 32.8413 96.0051 32.972C96.3038 33.1027 96.5534 33.287 96.7541 33.525C96.9548 33.7583 97.1064 34.0407 97.2091 34.372C97.3118 34.7033 97.3631 35.0697 97.3631 35.471V40H95.9911V35.471C95.9911 34.9623 95.8744 34.568 95.6411 34.288C95.4078 34.0033 95.0508 33.861 94.5701 33.861C94.2201 33.861 93.8911 33.945 93.5831 34.113C93.2798 34.2763 92.9974 34.5003 92.7361 34.785V40H91.3711V29.668H92.7361V33.791ZM102.236 32.776C102.759 32.776 103.23 32.8623 103.65 33.035C104.075 33.203 104.434 33.448 104.728 33.77C105.027 34.0873 105.255 34.4723 105.414 34.925C105.573 35.373 105.652 35.877 105.652 36.437C105.652 36.997 105.573 37.5033 105.414 37.956C105.255 38.4087 105.027 38.7937 104.728 39.111C104.434 39.4283 104.075 39.6733 103.65 39.846C103.23 40.014 102.759 40.098 102.236 40.098C101.709 40.098 101.233 40.014 100.808 39.846C100.388 39.6733 100.029 39.4283 99.7301 39.111C99.4314 38.7937 99.2004 38.4087 99.0371 37.956C98.8784 37.5033 98.7991 36.997 98.7991 36.437C98.7991 35.877 98.8784 35.373 99.0371 34.925C99.2004 34.4723 99.4314 34.0873 99.7301 33.77C100.029 33.448 100.388 33.203 100.808 33.035C101.233 32.8623 101.709 32.776 102.236 32.776ZM102.236 39.034C102.908 39.034 103.41 38.8077 103.741 38.355C104.072 37.9023 104.238 37.2653 104.238 36.444C104.238 35.6227 104.072 34.9857 103.741 34.533C103.41 34.0757 102.908 33.847 102.236 33.847C101.555 33.847 101.046 34.0757 100.71 34.533C100.379 34.9857 100.213 35.6227 100.213 36.444C100.213 37.2653 100.379 37.9023 100.71 38.355C101.046 38.8077 101.555 39.034 102.236 39.034ZM108.464 34.253C108.692 33.7863 108.968 33.42 109.29 33.154C109.612 32.888 109.999 32.755 110.452 32.755C110.606 32.755 110.75 32.7737 110.886 32.811C111.026 32.8437 111.147 32.895 111.25 32.965L111.159 33.994C111.126 34.12 111.049 34.183 110.928 34.183C110.862 34.183 110.764 34.1713 110.634 34.148C110.503 34.12 110.363 34.106 110.214 34.106C109.994 34.106 109.801 34.1387 109.633 34.204C109.465 34.2647 109.313 34.358 109.178 34.484C109.047 34.6053 108.93 34.757 108.828 34.939C108.725 35.1163 108.629 35.3193 108.541 35.548V40H107.176V32.888H107.96C108.109 32.888 108.209 32.916 108.261 32.972C108.317 33.0233 108.356 33.1167 108.38 33.252L108.464 34.253ZM116.754 35.653C116.754 35.3823 116.714 35.1327 116.635 34.904C116.56 34.6753 116.448 34.477 116.299 34.309C116.15 34.141 115.968 34.0103 115.753 33.917C115.538 33.8237 115.291 33.777 115.011 33.777C114.437 33.777 113.984 33.9427 113.653 34.274C113.326 34.6053 113.119 35.065 113.03 35.653H116.754ZM117.881 38.985C117.713 39.181 117.519 39.3513 117.3 39.496C117.081 39.636 116.847 39.7503 116.6 39.839C116.353 39.9277 116.096 39.993 115.83 40.035C115.569 40.077 115.31 40.098 115.053 40.098C114.563 40.098 114.108 40.0163 113.688 39.853C113.273 39.685 112.911 39.4423 112.603 39.125C112.3 38.803 112.062 38.4063 111.889 37.935C111.721 37.459 111.637 36.913 111.637 36.297C111.637 35.8023 111.714 35.3427 111.868 34.918C112.022 34.4887 112.241 34.1153 112.526 33.798C112.815 33.4807 113.168 33.231 113.583 33.049C113.998 32.867 114.465 32.776 114.983 32.776C115.417 32.776 115.816 32.8483 116.18 32.993C116.549 33.133 116.866 33.3383 117.132 33.609C117.398 33.8797 117.606 34.2133 117.755 34.61C117.909 35.0067 117.986 35.4593 117.986 35.968C117.986 36.178 117.963 36.3203 117.916 36.395C117.869 36.465 117.783 36.5 117.657 36.5H112.995C113.009 36.9247 113.07 37.2957 113.177 37.613C113.284 37.9257 113.431 38.187 113.618 38.397C113.809 38.607 114.036 38.7633 114.297 38.866C114.558 38.9687 114.85 39.02 115.172 39.02C115.475 39.02 115.737 38.985 115.956 38.915C116.18 38.845 116.371 38.7703 116.53 38.691C116.693 38.607 116.829 38.53 116.936 38.46C117.048 38.39 117.146 38.355 117.23 38.355C117.342 38.355 117.428 38.397 117.489 38.481L117.881 38.985ZM120.818 33.791C121.117 33.4877 121.446 33.2427 121.805 33.056C122.169 32.8693 122.587 32.776 123.058 32.776C123.45 32.776 123.793 32.8413 124.087 32.972C124.386 33.1027 124.635 33.287 124.836 33.525C125.037 33.7583 125.188 34.0407 125.291 34.372C125.394 34.7033 125.445 35.0697 125.445 35.471V40H124.073V35.471C124.073 34.9623 123.956 34.568 123.723 34.288C123.49 34.0033 123.133 33.861 122.652 33.861C122.302 33.861 121.973 33.945 121.665 34.113C121.362 34.2763 121.079 34.5003 120.818 34.785V40H119.453V29.668H120.818V33.791ZM131.109 36.843C130.554 36.8617 130.082 36.906 129.695 36.976C129.308 37.0413 128.993 37.13 128.75 37.242C128.507 37.354 128.332 37.487 128.225 37.641C128.118 37.7903 128.064 37.9583 128.064 38.145C128.064 38.3223 128.092 38.4763 128.148 38.607C128.209 38.733 128.288 38.838 128.386 38.922C128.489 39.0013 128.608 39.0597 128.743 39.097C128.878 39.1343 129.025 39.153 129.184 39.153C129.394 39.153 129.585 39.132 129.758 39.09C129.935 39.048 130.101 38.9897 130.255 38.915C130.409 38.8357 130.556 38.74 130.696 38.628C130.836 38.516 130.974 38.3877 131.109 38.243V36.843ZM127.105 33.882C127.502 33.504 127.931 33.2217 128.393 33.035C128.86 32.8483 129.371 32.755 129.926 32.755C130.332 32.755 130.691 32.8227 131.004 32.958C131.317 33.0887 131.58 33.273 131.795 33.511C132.01 33.749 132.171 34.0337 132.278 34.365C132.39 34.6963 132.446 35.0627 132.446 35.464V40H131.837C131.702 40 131.599 39.979 131.529 39.937C131.459 39.8903 131.403 39.8063 131.361 39.685L131.214 39.062C131.032 39.23 130.852 39.3793 130.675 39.51C130.498 39.636 130.311 39.7457 130.115 39.839C129.924 39.9277 129.718 39.9953 129.499 40.042C129.28 40.0887 129.037 40.112 128.771 40.112C128.491 40.112 128.227 40.0747 127.98 40C127.737 39.9207 127.525 39.8017 127.343 39.643C127.161 39.4843 127.016 39.286 126.909 39.048C126.806 38.81 126.755 38.5323 126.755 38.215C126.755 37.935 126.83 37.6667 126.979 37.41C127.133 37.1487 127.38 36.9153 127.721 36.71C128.066 36.5047 128.514 36.3367 129.065 36.206C129.62 36.0753 130.302 36.0007 131.109 35.982V35.464C131.109 34.9273 130.995 34.526 130.766 34.26C130.537 33.994 130.201 33.861 129.758 33.861C129.459 33.861 129.207 33.8983 129.002 33.973C128.801 34.0477 128.626 34.1317 128.477 34.225C128.332 34.3137 128.204 34.3953 128.092 34.47C127.985 34.5447 127.873 34.582 127.756 34.582C127.663 34.582 127.581 34.5563 127.511 34.505C127.446 34.4537 127.392 34.393 127.35 34.323L127.105 33.882ZM135.554 33.875C135.708 33.7117 135.869 33.5623 136.037 33.427C136.205 33.2917 136.383 33.1773 136.569 33.084C136.761 32.986 136.964 32.9113 137.178 32.86C137.398 32.804 137.631 32.776 137.878 32.776C138.27 32.776 138.613 32.8413 138.907 32.972C139.206 33.1027 139.456 33.287 139.656 33.525C139.857 33.7583 140.009 34.0407 140.111 34.372C140.214 34.7033 140.265 35.0697 140.265 35.471V40H138.893V35.471C138.893 34.9623 138.777 34.568 138.543 34.288C138.31 34.0033 137.953 33.861 137.472 33.861C137.122 33.861 136.793 33.945 136.485 34.113C136.182 34.2763 135.9 34.5003 135.638 34.785V40H134.273V32.888H135.092C135.284 32.888 135.403 32.979 135.449 33.161L135.554 33.875ZM146.692 34.61C146.468 34.316 146.226 34.1107 145.964 33.994C145.708 33.8773 145.418 33.819 145.096 33.819C144.471 33.819 143.986 34.0453 143.64 34.498C143.3 34.946 143.129 35.6017 143.129 36.465C143.129 36.9177 143.167 37.305 143.241 37.627C143.321 37.9443 143.433 38.2057 143.577 38.411C143.727 38.6117 143.909 38.761 144.123 38.859C144.338 38.9523 144.581 38.999 144.851 38.999C145.248 38.999 145.591 38.9103 145.88 38.733C146.17 38.5557 146.44 38.306 146.692 37.984V34.61ZM148.064 29.668V40H147.238C147.047 40 146.928 39.909 146.881 39.727L146.762 38.908C146.459 39.2673 146.114 39.5567 145.726 39.776C145.344 39.9907 144.9 40.098 144.396 40.098C143.99 40.098 143.622 40.0187 143.29 39.86C142.964 39.7013 142.684 39.4703 142.45 39.167C142.217 38.859 142.037 38.4787 141.911 38.026C141.785 37.5733 141.722 37.053 141.722 36.465C141.722 35.9377 141.792 35.4477 141.932 34.995C142.072 34.5423 142.275 34.1503 142.541 33.819C142.807 33.4877 143.129 33.2287 143.507 33.042C143.885 32.8507 144.312 32.755 144.788 32.755C145.218 32.755 145.582 32.825 145.88 32.965C146.184 33.105 146.454 33.3033 146.692 33.56V29.668H148.064Z" fill="#EEC1C1"/>
<path d="M181.378 99.7654C181.531 100.016 181.481 100.336 181.267 100.48L177.782 102.826C177.568 102.97 177.271 102.883 177.118 102.632C176.966 102.382 177.016 102.062 177.23 101.918L180.328 99.8327L178.122 96.2016C177.969 95.951 178.019 95.6311 178.233 95.4871C178.447 95.3432 178.744 95.4297 178.896 95.6804L181.378 99.7654ZM104.192 61.6256C136.735 81.867 156.264 92.2913 181.07 99.5208L180.912 100.531C155.976 93.2638 136.352 82.7802 103.787 62.5251L104.192 61.6256Z" fill="#EEC1C1"/>
</svg>
