<svg width="325" height="106" viewBox="0 0 325 106" fill="none" xmlns="http://www.w3.org/2000/svg">
<path d="M153.3 61.904L151.338 68H150.402C150.29 68 150.214 67.926 150.174 67.778L148.89 63.806C148.858 63.706 148.83 63.608 148.806 63.512C148.782 63.412 148.76 63.312 148.74 63.212C148.704 63.42 148.654 63.622 148.59 63.818L147.288 67.778C147.248 67.926 147.162 68 147.03 68H146.142L144.174 61.904H145.098C145.19 61.904 145.266 61.926 145.326 61.97C145.39 62.014 145.432 62.07 145.452 62.138L146.55 65.882C146.586 66.034 146.618 66.182 146.646 66.326C146.674 66.47 146.7 66.614 146.724 66.758C146.76 66.614 146.798 66.47 146.838 66.326C146.882 66.182 146.926 66.034 146.97 65.882L148.188 62.114C148.208 62.046 148.246 61.992 148.302 61.952C148.358 61.908 148.426 61.886 148.506 61.886H149.016C149.104 61.886 149.176 61.908 149.232 61.952C149.292 61.992 149.332 62.046 149.352 62.114L150.54 65.882C150.584 66.034 150.626 66.184 150.666 66.332C150.706 66.476 150.742 66.622 150.774 66.77C150.798 66.626 150.826 66.482 150.858 66.338C150.89 66.19 150.926 66.038 150.966 65.882L152.082 62.138C152.102 62.07 152.142 62.014 152.202 61.97C152.266 61.926 152.338 61.904 152.418 61.904H153.3ZM158.235 64.274C158.235 64.042 158.201 63.828 158.133 63.632C158.069 63.436 157.973 63.266 157.845 63.122C157.717 62.978 157.561 62.866 157.377 62.786C157.193 62.706 156.981 62.666 156.741 62.666C156.249 62.666 155.861 62.808 155.577 63.092C155.297 63.376 155.119 63.77 155.043 64.274H158.235ZM159.201 67.13C159.057 67.298 158.891 67.444 158.703 67.568C158.515 67.688 158.315 67.786 158.103 67.862C157.891 67.938 157.671 67.994 157.443 68.03C157.219 68.066 156.997 68.084 156.777 68.084C156.357 68.084 155.967 68.014 155.607 67.874C155.251 67.73 154.941 67.522 154.677 67.25C154.417 66.974 154.213 66.634 154.065 66.23C153.921 65.822 153.849 65.354 153.849 64.826C153.849 64.402 153.915 64.008 154.047 63.644C154.179 63.276 154.367 62.956 154.611 62.684C154.859 62.412 155.161 62.198 155.517 62.042C155.873 61.886 156.273 61.808 156.717 61.808C157.089 61.808 157.431 61.87 157.743 61.994C158.059 62.114 158.331 62.29 158.559 62.522C158.787 62.754 158.965 63.04 159.093 63.38C159.225 63.72 159.291 64.108 159.291 64.544C159.291 64.724 159.271 64.846 159.231 64.91C159.191 64.97 159.117 65 159.009 65H155.013C155.025 65.364 155.077 65.682 155.169 65.954C155.261 66.222 155.387 66.446 155.547 66.626C155.711 66.806 155.905 66.94 156.129 67.028C156.353 67.116 156.603 67.16 156.879 67.16C157.139 67.16 157.363 67.13 157.551 67.07C157.743 67.01 157.907 66.946 158.043 66.878C158.183 66.806 158.299 66.74 158.391 66.68C158.487 66.62 158.571 66.59 158.643 66.59C158.739 66.59 158.813 66.626 158.865 66.698L159.201 67.13ZM171.816 61.904L169.854 68H168.918C168.806 68 168.73 67.926 168.69 67.778L167.406 63.806C167.374 63.706 167.346 63.608 167.322 63.512C167.298 63.412 167.276 63.312 167.256 63.212C167.22 63.42 167.17 63.622 167.106 63.818L165.804 67.778C165.764 67.926 165.678 68 165.546 68H164.658L162.69 61.904H163.614C163.706 61.904 163.782 61.926 163.842 61.97C163.906 62.014 163.948 62.07 163.968 62.138L165.066 65.882C165.102 66.034 165.134 66.182 165.162 66.326C165.19 66.47 165.216 66.614 165.24 66.758C165.276 66.614 165.314 66.47 165.354 66.326C165.398 66.182 165.442 66.034 165.486 65.882L166.704 62.114C166.724 62.046 166.762 61.992 166.818 61.952C166.874 61.908 166.942 61.886 167.022 61.886H167.532C167.62 61.886 167.692 61.908 167.748 61.952C167.808 61.992 167.848 62.046 167.868 62.114L169.056 65.882C169.1 66.034 169.142 66.184 169.182 66.332C169.222 66.476 169.258 66.622 169.29 66.77C169.314 66.626 169.342 66.482 169.374 66.338C169.406 66.19 169.442 66.038 169.482 65.882L170.598 62.138C170.618 62.07 170.658 62.014 170.718 61.97C170.782 61.926 170.854 61.904 170.934 61.904H171.816ZM174.03 61.904V68H172.86V61.904H174.03ZM174.252 60.02C174.252 60.128 174.23 60.232 174.186 60.332C174.142 60.428 174.082 60.514 174.006 60.59C173.934 60.662 173.848 60.72 173.748 60.764C173.648 60.804 173.544 60.824 173.436 60.824C173.328 60.824 173.226 60.804 173.13 60.764C173.034 60.72 172.948 60.662 172.872 60.59C172.8 60.514 172.742 60.428 172.698 60.332C172.658 60.232 172.638 60.128 172.638 60.02C172.638 59.908 172.658 59.804 172.698 59.708C172.742 59.608 172.8 59.522 172.872 59.45C172.948 59.374 173.034 59.316 173.13 59.276C173.226 59.232 173.328 59.21 173.436 59.21C173.544 59.21 173.648 59.232 173.748 59.276C173.848 59.316 173.934 59.374 174.006 59.45C174.082 59.522 174.142 59.608 174.186 59.708C174.23 59.804 174.252 59.908 174.252 60.02ZM176.924 59.144V68H175.748V59.144H176.924ZM179.795 59.144V68H178.619V59.144H179.795ZM187.1 61.808C187.548 61.808 187.952 61.882 188.312 62.03C188.676 62.174 188.984 62.384 189.236 62.66C189.492 62.932 189.688 63.262 189.824 63.65C189.96 64.034 190.028 64.466 190.028 64.946C190.028 65.426 189.96 65.86 189.824 66.248C189.688 66.636 189.492 66.966 189.236 67.238C188.984 67.51 188.676 67.72 188.312 67.868C187.952 68.012 187.548 68.084 187.1 68.084C186.648 68.084 186.24 68.012 185.876 67.868C185.516 67.72 185.208 67.51 184.952 67.238C184.696 66.966 184.498 66.636 184.358 66.248C184.222 65.86 184.154 65.426 184.154 64.946C184.154 64.466 184.222 64.034 184.358 63.65C184.498 63.262 184.696 62.932 184.952 62.66C185.208 62.384 185.516 62.174 185.876 62.03C186.24 61.882 186.648 61.808 187.1 61.808ZM187.1 67.172C187.676 67.172 188.106 66.978 188.39 66.59C188.674 66.202 188.816 65.656 188.816 64.952C188.816 64.248 188.674 63.702 188.39 63.314C188.106 62.922 187.676 62.726 187.1 62.726C186.516 62.726 186.08 62.922 185.792 63.314C185.508 63.702 185.366 64.248 185.366 64.952C185.366 65.656 185.508 66.202 185.792 66.59C186.08 66.978 186.516 67.172 187.1 67.172ZM192.432 62.75C192.564 62.61 192.702 62.482 192.846 62.366C192.99 62.25 193.142 62.152 193.302 62.072C193.466 61.988 193.64 61.924 193.824 61.88C194.012 61.832 194.212 61.808 194.424 61.808C194.76 61.808 195.054 61.864 195.306 61.976C195.562 62.088 195.776 62.246 195.948 62.45C196.12 62.65 196.25 62.892 196.338 63.176C196.426 63.46 196.47 63.774 196.47 64.118V68H195.294V64.118C195.294 63.682 195.194 63.344 194.994 63.104C194.794 62.86 194.488 62.738 194.076 62.738C193.776 62.738 193.494 62.81 193.23 62.954C192.97 63.094 192.728 63.286 192.504 63.53V68H191.334V61.904H192.036C192.2 61.904 192.302 61.982 192.342 62.138L192.432 62.75ZM199.249 59.144V68H198.073V59.144H199.249ZM206.248 61.904L202.864 69.77C202.828 69.858 202.78 69.926 202.72 69.974C202.66 70.022 202.572 70.046 202.456 70.046H201.586L202.702 67.616L200.2 61.904H201.22C201.32 61.904 201.398 61.928 201.454 61.976C201.51 62.024 201.55 62.078 201.574 62.138L203.122 65.798C203.154 65.89 203.184 65.984 203.212 66.08C203.244 66.172 203.27 66.264 203.29 66.356C203.318 66.26 203.348 66.166 203.38 66.074C203.412 65.978 203.446 65.884 203.482 65.792L204.976 62.138C205.004 62.07 205.048 62.014 205.108 61.97C205.168 61.926 205.236 61.904 205.312 61.904H206.248ZM214.955 61.904V68H214.253C214.093 68 213.989 67.922 213.941 67.766L213.857 67.154C213.725 67.294 213.587 67.422 213.443 67.538C213.299 67.654 213.145 67.754 212.981 67.838C212.817 67.918 212.643 67.98 212.459 68.024C212.275 68.072 212.077 68.096 211.865 68.096C211.529 68.096 211.233 68.04 210.977 67.928C210.725 67.816 210.513 67.66 210.341 67.46C210.169 67.256 210.039 67.012 209.951 66.728C209.863 66.444 209.819 66.13 209.819 65.786V61.904H210.995V65.786C210.995 66.222 211.095 66.562 211.295 66.806C211.495 67.046 211.801 67.166 212.213 67.166C212.513 67.166 212.793 67.096 213.053 66.956C213.313 66.812 213.557 66.616 213.785 66.368V61.904H214.955ZM220.182 62.954C220.15 63.006 220.116 63.044 220.08 63.068C220.044 63.088 219.998 63.098 219.942 63.098C219.878 63.098 219.806 63.076 219.726 63.032C219.65 62.988 219.556 62.94 219.444 62.888C219.336 62.836 219.208 62.788 219.06 62.744C218.912 62.7 218.736 62.678 218.532 62.678C218.364 62.678 218.21 62.7 218.07 62.744C217.934 62.784 217.818 62.842 217.722 62.918C217.626 62.99 217.552 63.078 217.5 63.182C217.448 63.282 217.422 63.39 217.422 63.506C217.422 63.658 217.466 63.784 217.554 63.884C217.646 63.984 217.764 64.07 217.908 64.142C218.056 64.214 218.222 64.28 218.406 64.34C218.594 64.396 218.784 64.456 218.976 64.52C219.172 64.584 219.362 64.658 219.546 64.742C219.734 64.822 219.9 64.924 220.044 65.048C220.192 65.168 220.31 65.314 220.398 65.486C220.49 65.658 220.536 65.868 220.536 66.116C220.536 66.4 220.484 66.664 220.38 66.908C220.28 67.148 220.13 67.356 219.93 67.532C219.734 67.708 219.49 67.846 219.198 67.946C218.906 68.046 218.572 68.096 218.196 68.096C217.776 68.096 217.388 68.026 217.032 67.886C216.676 67.746 216.378 67.568 216.138 67.352L216.414 66.902C216.446 66.846 216.486 66.804 216.534 66.776C216.582 66.744 216.646 66.728 216.726 66.728C216.802 66.728 216.88 66.756 216.96 66.812C217.04 66.868 217.136 66.93 217.248 66.998C217.36 67.062 217.496 67.122 217.656 67.178C217.816 67.23 218.016 67.256 218.256 67.256C218.456 67.256 218.63 67.232 218.778 67.184C218.926 67.132 219.048 67.064 219.144 66.98C219.244 66.892 219.318 66.792 219.366 66.68C219.414 66.568 219.438 66.45 219.438 66.326C219.438 66.166 219.392 66.034 219.3 65.93C219.212 65.822 219.094 65.73 218.946 65.654C218.802 65.578 218.636 65.512 218.448 65.456C218.26 65.4 218.068 65.34 217.872 65.276C217.676 65.212 217.484 65.138 217.296 65.054C217.108 64.97 216.94 64.864 216.792 64.736C216.648 64.608 216.53 64.452 216.438 64.268C216.35 64.084 216.306 63.86 216.306 63.596C216.306 63.36 216.354 63.134 216.45 62.918C216.55 62.702 216.692 62.512 216.876 62.348C217.064 62.184 217.294 62.054 217.566 61.958C217.842 61.858 218.156 61.808 218.508 61.808C218.912 61.808 219.276 61.872 219.6 62C219.928 62.128 220.208 62.304 220.44 62.528L220.182 62.954ZM225.84 64.274C225.84 64.042 225.806 63.828 225.738 63.632C225.674 63.436 225.578 63.266 225.45 63.122C225.322 62.978 225.166 62.866 224.982 62.786C224.798 62.706 224.586 62.666 224.346 62.666C223.854 62.666 223.466 62.808 223.182 63.092C222.902 63.376 222.724 63.77 222.648 64.274H225.84ZM226.806 67.13C226.662 67.298 226.496 67.444 226.308 67.568C226.12 67.688 225.92 67.786 225.708 67.862C225.496 67.938 225.276 67.994 225.048 68.03C224.824 68.066 224.602 68.084 224.382 68.084C223.962 68.084 223.572 68.014 223.212 67.874C222.856 67.73 222.546 67.522 222.282 67.25C222.022 66.974 221.818 66.634 221.67 66.23C221.526 65.822 221.454 65.354 221.454 64.826C221.454 64.402 221.52 64.008 221.652 63.644C221.784 63.276 221.972 62.956 222.216 62.684C222.464 62.412 222.766 62.198 223.122 62.042C223.478 61.886 223.878 61.808 224.322 61.808C224.694 61.808 225.036 61.87 225.348 61.994C225.664 62.114 225.936 62.29 226.164 62.522C226.392 62.754 226.57 63.04 226.698 63.38C226.83 63.72 226.896 64.108 226.896 64.544C226.896 64.724 226.876 64.846 226.836 64.91C226.796 64.97 226.722 65 226.614 65H222.618C222.63 65.364 222.682 65.682 222.774 65.954C222.866 66.222 222.992 66.446 223.152 66.626C223.316 66.806 223.51 66.94 223.734 67.028C223.958 67.116 224.208 67.16 224.484 67.16C224.744 67.16 224.968 67.13 225.156 67.07C225.348 67.01 225.512 66.946 225.648 66.878C225.788 66.806 225.904 66.74 225.996 66.68C226.092 66.62 226.176 66.59 226.248 66.59C226.344 66.59 226.418 66.626 226.47 66.698L226.806 67.13ZM232.413 61.904V68H231.243V61.904H232.413ZM232.635 60.02C232.635 60.128 232.613 60.232 232.569 60.332C232.525 60.428 232.465 60.514 232.389 60.59C232.317 60.662 232.231 60.72 232.131 60.764C232.031 60.804 231.927 60.824 231.819 60.824C231.711 60.824 231.609 60.804 231.513 60.764C231.417 60.72 231.331 60.662 231.255 60.59C231.183 60.514 231.125 60.428 231.081 60.332C231.041 60.232 231.021 60.128 231.021 60.02C231.021 59.908 231.041 59.804 231.081 59.708C231.125 59.608 231.183 59.522 231.255 59.45C231.331 59.374 231.417 59.316 231.513 59.276C231.609 59.232 231.711 59.21 231.819 59.21C231.927 59.21 232.031 59.232 232.131 59.276C232.231 59.316 232.317 59.374 232.389 59.45C232.465 59.522 232.525 59.608 232.569 59.708C232.613 59.804 232.635 59.908 232.635 60.02ZM236.015 68.096C235.523 68.096 235.143 67.958 234.875 67.682C234.611 67.406 234.479 67.012 234.479 66.5V62.852H233.771C233.703 62.852 233.645 62.832 233.597 62.792C233.553 62.748 233.531 62.684 233.531 62.6V62.126L234.521 61.988L234.785 60.17C234.801 60.102 234.831 60.05 234.875 60.014C234.923 59.974 234.983 59.954 235.055 59.954H235.649V62H237.377V62.852H235.649V66.422C235.649 66.662 235.707 66.842 235.823 66.962C235.943 67.078 236.095 67.136 236.279 67.136C236.387 67.136 236.479 67.122 236.555 67.094C236.635 67.066 236.703 67.036 236.759 67.004C236.815 66.968 236.863 66.936 236.903 66.908C236.943 66.88 236.979 66.866 237.011 66.866C237.051 66.866 237.081 66.876 237.101 66.896C237.125 66.912 237.149 66.94 237.173 66.98L237.521 67.544C237.329 67.72 237.101 67.856 236.837 67.952C236.573 68.048 236.299 68.096 236.015 68.096ZM243.398 68.096C242.906 68.096 242.526 67.958 242.258 67.682C241.994 67.406 241.862 67.012 241.862 66.5V62.852H241.154C241.086 62.852 241.028 62.832 240.98 62.792C240.936 62.748 240.914 62.684 240.914 62.6V62.126L241.904 61.988L242.168 60.17C242.184 60.102 242.214 60.05 242.258 60.014C242.306 59.974 242.366 59.954 242.438 59.954H243.032V62H244.76V62.852H243.032V66.422C243.032 66.662 243.09 66.842 243.206 66.962C243.326 67.078 243.478 67.136 243.662 67.136C243.77 67.136 243.862 67.122 243.938 67.094C244.018 67.066 244.086 67.036 244.142 67.004C244.198 66.968 244.246 66.936 244.286 66.908C244.326 66.88 244.362 66.866 244.394 66.866C244.434 66.866 244.464 66.876 244.484 66.896C244.508 66.912 244.532 66.94 244.556 66.98L244.904 67.544C244.712 67.72 244.484 67.856 244.22 67.952C243.956 68.048 243.682 68.096 243.398 68.096ZM248.4 61.808C248.848 61.808 249.252 61.882 249.612 62.03C249.976 62.174 250.284 62.384 250.536 62.66C250.792 62.932 250.988 63.262 251.124 63.65C251.26 64.034 251.328 64.466 251.328 64.946C251.328 65.426 251.26 65.86 251.124 66.248C250.988 66.636 250.792 66.966 250.536 67.238C250.284 67.51 249.976 67.72 249.612 67.868C249.252 68.012 248.848 68.084 248.4 68.084C247.948 68.084 247.54 68.012 247.176 67.868C246.816 67.72 246.508 67.51 246.252 67.238C245.996 66.966 245.798 66.636 245.658 66.248C245.522 65.86 245.454 65.426 245.454 64.946C245.454 64.466 245.522 64.034 245.658 63.65C245.798 63.262 245.996 62.932 246.252 62.66C246.508 62.384 246.816 62.174 247.176 62.03C247.54 61.882 247.948 61.808 248.4 61.808ZM248.4 67.172C248.976 67.172 249.406 66.978 249.69 66.59C249.974 66.202 250.116 65.656 250.116 64.952C250.116 64.248 249.974 63.702 249.69 63.314C249.406 62.922 248.976 62.726 248.4 62.726C247.816 62.726 247.38 62.922 247.092 63.314C246.808 63.702 246.666 64.248 246.666 64.952C246.666 65.656 246.808 66.202 247.092 66.59C247.38 66.978 247.816 67.172 248.4 67.172ZM256.768 62.75C256.9 62.61 257.038 62.482 257.182 62.366C257.326 62.25 257.478 62.152 257.638 62.072C257.802 61.988 257.976 61.924 258.16 61.88C258.348 61.832 258.548 61.808 258.76 61.808C259.096 61.808 259.39 61.864 259.642 61.976C259.898 62.088 260.112 62.246 260.284 62.45C260.456 62.65 260.586 62.892 260.674 63.176C260.762 63.46 260.806 63.774 260.806 64.118V68H259.63V64.118C259.63 63.682 259.53 63.344 259.33 63.104C259.13 62.86 258.824 62.738 258.412 62.738C258.112 62.738 257.83 62.81 257.566 62.954C257.306 63.094 257.064 63.286 256.84 63.53V68H255.67V61.904H256.372C256.536 61.904 256.638 61.982 256.678 62.138L256.768 62.75ZM264.983 61.808C265.431 61.808 265.835 61.882 266.195 62.03C266.559 62.174 266.867 62.384 267.119 62.66C267.375 62.932 267.571 63.262 267.707 63.65C267.843 64.034 267.911 64.466 267.911 64.946C267.911 65.426 267.843 65.86 267.707 66.248C267.571 66.636 267.375 66.966 267.119 67.238C266.867 67.51 266.559 67.72 266.195 67.868C265.835 68.012 265.431 68.084 264.983 68.084C264.531 68.084 264.123 68.012 263.759 67.868C263.399 67.72 263.091 67.51 262.835 67.238C262.579 66.966 262.381 66.636 262.241 66.248C262.105 65.86 262.037 65.426 262.037 64.946C262.037 64.466 262.105 64.034 262.241 63.65C262.381 63.262 262.579 62.932 262.835 62.66C263.091 62.384 263.399 62.174 263.759 62.03C264.123 61.882 264.531 61.808 264.983 61.808ZM264.983 67.172C265.559 67.172 265.989 66.978 266.273 66.59C266.557 66.202 266.699 65.656 266.699 64.952C266.699 64.248 266.557 63.702 266.273 63.314C265.989 62.922 265.559 62.726 264.983 62.726C264.399 62.726 263.963 62.922 263.675 63.314C263.391 63.702 263.249 64.248 263.249 64.952C263.249 65.656 263.391 66.202 263.675 66.59C263.963 66.978 264.399 67.172 264.983 67.172ZM274.877 68H273.701V62.852H270.641V66.422C270.641 66.662 270.699 66.842 270.815 66.962C270.935 67.078 271.087 67.136 271.271 67.136C271.379 67.136 271.471 67.122 271.547 67.094C271.627 67.066 271.695 67.036 271.751 67.004C271.807 66.968 271.855 66.936 271.895 66.908C271.935 66.88 271.971 66.866 272.003 66.866C272.043 66.866 272.073 66.876 272.093 66.896C272.117 66.912 272.141 66.94 272.165 66.98L272.513 67.544C272.321 67.72 272.093 67.856 271.829 67.952C271.565 68.048 271.291 68.096 271.007 68.096C270.515 68.096 270.135 67.958 269.867 67.682C269.603 67.406 269.471 67.012 269.471 66.5V62.852H268.763C268.695 62.852 268.637 62.832 268.589 62.792C268.545 62.748 268.523 62.684 268.523 62.6V62.126L269.519 61.988L269.777 60.17C269.793 60.102 269.823 60.05 269.867 60.014C269.915 59.974 269.975 59.954 270.047 59.954H270.641V62H274.877V68ZM275.141 59.984C275.141 60.092 275.119 60.196 275.075 60.296C275.031 60.392 274.971 60.478 274.895 60.554C274.823 60.626 274.737 60.684 274.637 60.728C274.537 60.768 274.433 60.788 274.325 60.788C274.217 60.788 274.115 60.768 274.019 60.728C273.923 60.684 273.837 60.626 273.761 60.554C273.689 60.478 273.631 60.392 273.587 60.296C273.547 60.196 273.527 60.092 273.527 59.984C273.527 59.872 273.547 59.766 273.587 59.666C273.631 59.566 273.689 59.48 273.761 59.408C273.837 59.332 273.923 59.274 274.019 59.234C274.115 59.19 274.217 59.168 274.325 59.168C274.433 59.168 274.537 59.19 274.637 59.234C274.737 59.274 274.823 59.332 274.895 59.408C274.971 59.48 275.031 59.566 275.075 59.666C275.119 59.766 275.141 59.872 275.141 59.984ZM276.978 68V62.864L276.342 62.786C276.25 62.766 276.174 62.734 276.114 62.69C276.058 62.642 276.03 62.574 276.03 62.486V62H276.978V61.448C276.978 61.1 277.028 60.79 277.128 60.518C277.228 60.246 277.37 60.016 277.554 59.828C277.742 59.636 277.966 59.492 278.226 59.396C278.49 59.296 278.786 59.246 279.114 59.246C279.39 59.246 279.644 59.286 279.876 59.366L279.852 59.954C279.848 60.006 279.832 60.046 279.804 60.074C279.776 60.098 279.738 60.116 279.69 60.128C279.646 60.14 279.59 60.148 279.522 60.152C279.458 60.152 279.388 60.152 279.312 60.152C279.132 60.152 278.968 60.174 278.82 60.218C278.672 60.262 278.546 60.336 278.442 60.44C278.338 60.544 278.258 60.682 278.202 60.854C278.146 61.022 278.118 61.232 278.118 61.484V62H279.828V62.852H278.154V68H276.978ZM286.134 61.904L282.75 69.77C282.714 69.858 282.666 69.926 282.606 69.974C282.546 70.022 282.458 70.046 282.342 70.046H281.472L282.588 67.616L280.086 61.904H281.106C281.206 61.904 281.284 61.928 281.34 61.976C281.396 62.024 281.436 62.078 281.46 62.138L283.008 65.798C283.04 65.89 283.07 65.984 283.098 66.08C283.13 66.172 283.156 66.264 283.176 66.356C283.204 66.26 283.234 66.166 283.266 66.074C283.298 65.978 283.332 65.884 283.368 65.792L284.862 62.138C284.89 62.07 284.934 62.014 284.994 61.97C285.054 61.926 285.122 61.904 285.198 61.904H286.134ZM294.795 61.904L291.411 69.77C291.375 69.858 291.327 69.926 291.267 69.974C291.207 70.022 291.119 70.046 291.003 70.046H290.133L291.249 67.616L288.747 61.904H289.767C289.867 61.904 289.945 61.928 290.001 61.976C290.057 62.024 290.097 62.078 290.121 62.138L291.669 65.798C291.701 65.89 291.731 65.984 291.759 66.08C291.791 66.172 291.817 66.264 291.837 66.356C291.865 66.26 291.895 66.166 291.927 66.074C291.959 65.978 291.993 65.884 292.029 65.792L293.523 62.138C293.551 62.07 293.595 62.014 293.655 61.97C293.715 61.926 293.783 61.904 293.859 61.904H294.795ZM298.111 61.808C298.559 61.808 298.963 61.882 299.323 62.03C299.687 62.174 299.995 62.384 300.247 62.66C300.503 62.932 300.699 63.262 300.835 63.65C300.971 64.034 301.039 64.466 301.039 64.946C301.039 65.426 300.971 65.86 300.835 66.248C300.699 66.636 300.503 66.966 300.247 67.238C299.995 67.51 299.687 67.72 299.323 67.868C298.963 68.012 298.559 68.084 298.111 68.084C297.659 68.084 297.251 68.012 296.887 67.868C296.527 67.72 296.219 67.51 295.963 67.238C295.707 66.966 295.509 66.636 295.369 66.248C295.233 65.86 295.165 65.426 295.165 64.946C295.165 64.466 295.233 64.034 295.369 63.65C295.509 63.262 295.707 62.932 295.963 62.66C296.219 62.384 296.527 62.174 296.887 62.03C297.251 61.882 297.659 61.808 298.111 61.808ZM298.111 67.172C298.687 67.172 299.117 66.978 299.401 66.59C299.685 66.202 299.827 65.656 299.827 64.952C299.827 64.248 299.685 63.702 299.401 63.314C299.117 62.922 298.687 62.726 298.111 62.726C297.527 62.726 297.091 62.922 296.803 63.314C296.519 63.702 296.377 64.248 296.377 64.952C296.377 65.656 296.519 66.202 296.803 66.59C297.091 66.978 297.527 67.172 298.111 67.172ZM307.415 61.904V68H306.713C306.553 68 306.449 67.922 306.401 67.766L306.317 67.154C306.185 67.294 306.047 67.422 305.903 67.538C305.759 67.654 305.605 67.754 305.441 67.838C305.277 67.918 305.103 67.98 304.919 68.024C304.735 68.072 304.537 68.096 304.325 68.096C303.989 68.096 303.693 68.04 303.437 67.928C303.185 67.816 302.973 67.66 302.801 67.46C302.629 67.256 302.499 67.012 302.411 66.728C302.323 66.444 302.279 66.13 302.279 65.786V61.904H303.455V65.786C303.455 66.222 303.555 66.562 303.755 66.806C303.955 67.046 304.261 67.166 304.673 67.166C304.973 67.166 305.253 67.096 305.513 66.956C305.773 66.812 306.017 66.616 306.245 66.368V61.904H307.415ZM313.308 61.904V68H312.138V61.904H313.308ZM313.53 60.02C313.53 60.128 313.508 60.232 313.464 60.332C313.42 60.428 313.36 60.514 313.284 60.59C313.212 60.662 313.126 60.72 313.026 60.764C312.926 60.804 312.822 60.824 312.714 60.824C312.606 60.824 312.504 60.804 312.408 60.764C312.312 60.72 312.226 60.662 312.15 60.59C312.078 60.514 312.02 60.428 311.976 60.332C311.936 60.232 311.916 60.128 311.916 60.02C311.916 59.908 311.936 59.804 311.976 59.708C312.02 59.608 312.078 59.522 312.15 59.45C312.226 59.374 312.312 59.316 312.408 59.276C312.504 59.232 312.606 59.21 312.714 59.21C312.822 59.21 312.926 59.232 313.026 59.276C313.126 59.316 313.212 59.374 313.284 59.45C313.36 59.522 313.42 59.608 313.464 59.708C313.508 59.804 313.53 59.908 313.53 60.02ZM315.404 68V62.864L314.768 62.786C314.676 62.766 314.6 62.734 314.54 62.69C314.484 62.642 314.456 62.574 314.456 62.486V62H315.404V61.448C315.404 61.1 315.454 60.79 315.554 60.518C315.654 60.246 315.796 60.016 315.98 59.828C316.168 59.636 316.392 59.492 316.652 59.396C316.916 59.296 317.212 59.246 317.54 59.246C317.816 59.246 318.07 59.286 318.302 59.366L318.278 59.954C318.274 60.006 318.258 60.046 318.23 60.074C318.202 60.098 318.164 60.116 318.116 60.128C318.072 60.14 318.016 60.148 317.948 60.152C317.884 60.152 317.814 60.152 317.738 60.152C317.558 60.152 317.394 60.174 317.246 60.218C317.098 60.262 316.972 60.336 316.868 60.44C316.764 60.544 316.684 60.682 316.628 60.854C316.572 61.022 316.544 61.232 316.544 61.484V62H318.254V62.852H316.58V68H315.404ZM146.73 88.096C146.238 88.096 145.858 87.958 145.59 87.682C145.326 87.406 145.194 87.012 145.194 86.5V82.852H144.486C144.418 82.852 144.36 82.832 144.312 82.792C144.268 82.748 144.246 82.684 144.246 82.6V82.126L145.236 81.988L145.5 80.17C145.516 80.102 145.546 80.05 145.59 80.014C145.638 79.974 145.698 79.954 145.77 79.954H146.364V82H148.092V82.852H146.364V86.422C146.364 86.662 146.422 86.842 146.538 86.962C146.658 87.078 146.81 87.136 146.994 87.136C147.102 87.136 147.194 87.122 147.27 87.094C147.35 87.066 147.418 87.036 147.474 87.004C147.53 86.968 147.578 86.936 147.618 86.908C147.658 86.88 147.694 86.866 147.726 86.866C147.766 86.866 147.796 86.876 147.816 86.896C147.84 86.912 147.864 86.94 147.888 86.98L148.236 87.544C148.044 87.72 147.816 87.856 147.552 87.952C147.288 88.048 147.014 88.096 146.73 88.096ZM150.34 82.678C150.596 82.418 150.878 82.208 151.186 82.048C151.498 81.888 151.856 81.808 152.26 81.808C152.596 81.808 152.89 81.864 153.142 81.976C153.398 82.088 153.612 82.246 153.784 82.45C153.956 82.65 154.086 82.892 154.174 83.176C154.262 83.46 154.306 83.774 154.306 84.118V88H153.13V84.118C153.13 83.682 153.03 83.344 152.83 83.104C152.63 82.86 152.324 82.738 151.912 82.738C151.612 82.738 151.33 82.81 151.066 82.954C150.806 83.094 150.564 83.286 150.34 83.53V88H149.17V79.144H150.34V82.678ZM159.923 84.274C159.923 84.042 159.889 83.828 159.821 83.632C159.757 83.436 159.661 83.266 159.533 83.122C159.405 82.978 159.249 82.866 159.065 82.786C158.881 82.706 158.669 82.666 158.429 82.666C157.937 82.666 157.549 82.808 157.265 83.092C156.985 83.376 156.807 83.77 156.731 84.274H159.923ZM160.889 87.13C160.745 87.298 160.579 87.444 160.391 87.568C160.203 87.688 160.003 87.786 159.791 87.862C159.579 87.938 159.359 87.994 159.131 88.03C158.907 88.066 158.685 88.084 158.465 88.084C158.045 88.084 157.655 88.014 157.295 87.874C156.939 87.73 156.629 87.522 156.365 87.25C156.105 86.974 155.901 86.634 155.753 86.23C155.609 85.822 155.537 85.354 155.537 84.826C155.537 84.402 155.603 84.008 155.735 83.644C155.867 83.276 156.055 82.956 156.299 82.684C156.547 82.412 156.849 82.198 157.205 82.042C157.561 81.886 157.961 81.808 158.405 81.808C158.777 81.808 159.119 81.87 159.431 81.994C159.747 82.114 160.019 82.29 160.247 82.522C160.475 82.754 160.653 83.04 160.781 83.38C160.913 83.72 160.979 84.108 160.979 84.544C160.979 84.724 160.959 84.846 160.919 84.91C160.879 84.97 160.805 85 160.697 85H156.701C156.713 85.364 156.765 85.682 156.857 85.954C156.949 86.222 157.075 86.446 157.235 86.626C157.399 86.806 157.593 86.94 157.817 87.028C158.041 87.116 158.291 87.16 158.567 87.16C158.827 87.16 159.051 87.13 159.239 87.07C159.431 87.01 159.595 86.946 159.731 86.878C159.871 86.806 159.987 86.74 160.079 86.68C160.175 86.62 160.259 86.59 160.331 86.59C160.427 86.59 160.501 86.626 160.553 86.698L160.889 87.13ZM167.869 81.808C168.317 81.808 168.721 81.882 169.081 82.03C169.445 82.174 169.753 82.384 170.005 82.66C170.261 82.932 170.457 83.262 170.593 83.65C170.729 84.034 170.797 84.466 170.797 84.946C170.797 85.426 170.729 85.86 170.593 86.248C170.457 86.636 170.261 86.966 170.005 87.238C169.753 87.51 169.445 87.72 169.081 87.868C168.721 88.012 168.317 88.084 167.869 88.084C167.417 88.084 167.009 88.012 166.645 87.868C166.285 87.72 165.977 87.51 165.721 87.238C165.465 86.966 165.267 86.636 165.127 86.248C164.991 85.86 164.923 85.426 164.923 84.946C164.923 84.466 164.991 84.034 165.127 83.65C165.267 83.262 165.465 82.932 165.721 82.66C165.977 82.384 166.285 82.174 166.645 82.03C167.009 81.882 167.417 81.808 167.869 81.808ZM167.869 87.172C168.445 87.172 168.875 86.978 169.159 86.59C169.443 86.202 169.585 85.656 169.585 84.952C169.585 84.248 169.443 83.702 169.159 83.314C168.875 82.922 168.445 82.726 167.869 82.726C167.285 82.726 166.849 82.922 166.561 83.314C166.277 83.702 166.135 84.248 166.135 84.952C166.135 85.656 166.277 86.202 166.561 86.59C166.849 86.978 167.285 87.172 167.869 87.172ZM173.894 88.096C173.402 88.096 173.022 87.958 172.754 87.682C172.49 87.406 172.358 87.012 172.358 86.5V82.852H171.65C171.582 82.852 171.524 82.832 171.476 82.792C171.432 82.748 171.41 82.684 171.41 82.6V82.126L172.4 81.988L172.664 80.17C172.68 80.102 172.71 80.05 172.754 80.014C172.802 79.974 172.862 79.954 172.934 79.954H173.528V82H175.256V82.852H173.528V86.422C173.528 86.662 173.586 86.842 173.702 86.962C173.822 87.078 173.974 87.136 174.158 87.136C174.266 87.136 174.358 87.122 174.434 87.094C174.514 87.066 174.582 87.036 174.638 87.004C174.694 86.968 174.742 86.936 174.782 86.908C174.822 86.88 174.858 86.866 174.89 86.866C174.93 86.866 174.96 86.876 174.98 86.896C175.004 86.912 175.028 86.94 175.052 86.98L175.4 87.544C175.208 87.72 174.98 87.856 174.716 87.952C174.452 88.048 174.178 88.096 173.894 88.096ZM177.504 82.678C177.76 82.418 178.042 82.208 178.35 82.048C178.662 81.888 179.02 81.808 179.424 81.808C179.76 81.808 180.054 81.864 180.306 81.976C180.562 82.088 180.776 82.246 180.948 82.45C181.12 82.65 181.25 82.892 181.338 83.176C181.426 83.46 181.47 83.774 181.47 84.118V88H180.294V84.118C180.294 83.682 180.194 83.344 179.994 83.104C179.794 82.86 179.488 82.738 179.076 82.738C178.776 82.738 178.494 82.81 178.23 82.954C177.97 83.094 177.728 83.286 177.504 83.53V88H176.334V79.144H177.504V82.678ZM187.087 84.274C187.087 84.042 187.053 83.828 186.985 83.632C186.921 83.436 186.825 83.266 186.697 83.122C186.569 82.978 186.413 82.866 186.229 82.786C186.045 82.706 185.833 82.666 185.593 82.666C185.101 82.666 184.713 82.808 184.429 83.092C184.149 83.376 183.971 83.77 183.895 84.274H187.087ZM188.053 87.13C187.909 87.298 187.743 87.444 187.555 87.568C187.367 87.688 187.167 87.786 186.955 87.862C186.743 87.938 186.523 87.994 186.295 88.03C186.071 88.066 185.849 88.084 185.629 88.084C185.209 88.084 184.819 88.014 184.459 87.874C184.103 87.73 183.793 87.522 183.529 87.25C183.269 86.974 183.065 86.634 182.917 86.23C182.773 85.822 182.701 85.354 182.701 84.826C182.701 84.402 182.767 84.008 182.899 83.644C183.031 83.276 183.219 82.956 183.463 82.684C183.711 82.412 184.013 82.198 184.369 82.042C184.725 81.886 185.125 81.808 185.569 81.808C185.941 81.808 186.283 81.87 186.595 81.994C186.911 82.114 187.183 82.29 187.411 82.522C187.639 82.754 187.817 83.04 187.945 83.38C188.077 83.72 188.143 84.108 188.143 84.544C188.143 84.724 188.123 84.846 188.083 84.91C188.043 84.97 187.969 85 187.861 85H183.865C183.877 85.364 183.929 85.682 184.021 85.954C184.113 86.222 184.239 86.446 184.399 86.626C184.563 86.806 184.757 86.94 184.981 87.028C185.205 87.116 185.455 87.16 185.731 87.16C185.991 87.16 186.215 87.13 186.403 87.07C186.595 87.01 186.759 86.946 186.895 86.878C187.035 86.806 187.151 86.74 187.243 86.68C187.339 86.62 187.423 86.59 187.495 86.59C187.591 86.59 187.665 86.626 187.717 86.698L188.053 87.13ZM190.504 83.074C190.7 82.674 190.936 82.36 191.212 82.132C191.488 81.904 191.82 81.79 192.208 81.79C192.34 81.79 192.464 81.806 192.58 81.838C192.7 81.866 192.804 81.91 192.892 81.97L192.814 82.852C192.786 82.96 192.72 83.014 192.616 83.014C192.56 83.014 192.476 83.004 192.364 82.984C192.252 82.96 192.132 82.948 192.004 82.948C191.816 82.948 191.65 82.976 191.506 83.032C191.362 83.084 191.232 83.164 191.116 83.272C191.004 83.376 190.904 83.506 190.816 83.662C190.728 83.814 190.646 83.988 190.57 84.184V88H189.4V81.904H190.072C190.2 81.904 190.286 81.928 190.33 81.976C190.378 82.02 190.412 82.1 190.432 82.216L190.504 83.074ZM199.17 81.808C199.618 81.808 200.022 81.882 200.382 82.03C200.746 82.174 201.054 82.384 201.306 82.66C201.562 82.932 201.758 83.262 201.894 83.65C202.03 84.034 202.098 84.466 202.098 84.946C202.098 85.426 202.03 85.86 201.894 86.248C201.758 86.636 201.562 86.966 201.306 87.238C201.054 87.51 200.746 87.72 200.382 87.868C200.022 88.012 199.618 88.084 199.17 88.084C198.718 88.084 198.31 88.012 197.946 87.868C197.586 87.72 197.278 87.51 197.022 87.238C196.766 86.966 196.568 86.636 196.428 86.248C196.292 85.86 196.224 85.426 196.224 84.946C196.224 84.466 196.292 84.034 196.428 83.65C196.568 83.262 196.766 82.932 197.022 82.66C197.278 82.384 197.586 82.174 197.946 82.03C198.31 81.882 198.718 81.808 199.17 81.808ZM199.17 87.172C199.746 87.172 200.176 86.978 200.46 86.59C200.744 86.202 200.886 85.656 200.886 84.952C200.886 84.248 200.744 83.702 200.46 83.314C200.176 82.922 199.746 82.726 199.17 82.726C198.586 82.726 198.15 82.922 197.862 83.314C197.578 83.702 197.436 84.248 197.436 84.952C197.436 85.656 197.578 86.202 197.862 86.59C198.15 86.978 198.586 87.172 199.17 87.172ZM204.502 82.75C204.634 82.61 204.772 82.482 204.916 82.366C205.06 82.25 205.212 82.152 205.372 82.072C205.536 81.988 205.71 81.924 205.894 81.88C206.082 81.832 206.282 81.808 206.494 81.808C206.83 81.808 207.124 81.864 207.376 81.976C207.632 82.088 207.846 82.246 208.018 82.45C208.19 82.65 208.32 82.892 208.408 83.176C208.496 83.46 208.54 83.774 208.54 84.118V88H207.364V84.118C207.364 83.682 207.264 83.344 207.064 83.104C206.864 82.86 206.558 82.738 206.146 82.738C205.846 82.738 205.564 82.81 205.3 82.954C205.04 83.094 204.798 83.286 204.574 83.53V88H203.404V81.904H204.106C204.27 81.904 204.372 81.982 204.412 82.138L204.502 82.75ZM214.157 84.274C214.157 84.042 214.123 83.828 214.055 83.632C213.991 83.436 213.895 83.266 213.767 83.122C213.639 82.978 213.483 82.866 213.299 82.786C213.115 82.706 212.903 82.666 212.663 82.666C212.171 82.666 211.783 82.808 211.499 83.092C211.219 83.376 211.041 83.77 210.965 84.274H214.157ZM215.123 87.13C214.979 87.298 214.813 87.444 214.625 87.568C214.437 87.688 214.237 87.786 214.025 87.862C213.813 87.938 213.593 87.994 213.365 88.03C213.141 88.066 212.919 88.084 212.699 88.084C212.279 88.084 211.889 88.014 211.529 87.874C211.173 87.73 210.863 87.522 210.599 87.25C210.339 86.974 210.135 86.634 209.987 86.23C209.843 85.822 209.771 85.354 209.771 84.826C209.771 84.402 209.837 84.008 209.969 83.644C210.101 83.276 210.289 82.956 210.533 82.684C210.781 82.412 211.083 82.198 211.439 82.042C211.795 81.886 212.195 81.808 212.639 81.808C213.011 81.808 213.353 81.87 213.665 81.994C213.981 82.114 214.253 82.29 214.481 82.522C214.709 82.754 214.887 83.04 215.015 83.38C215.147 83.72 215.213 84.108 215.213 84.544C215.213 84.724 215.193 84.846 215.153 84.91C215.113 84.97 215.039 85 214.931 85H210.935C210.947 85.364 210.999 85.682 211.091 85.954C211.183 86.222 211.309 86.446 211.469 86.626C211.633 86.806 211.827 86.94 212.051 87.028C212.275 87.116 212.525 87.16 212.801 87.16C213.061 87.16 213.285 87.13 213.473 87.07C213.665 87.01 213.829 86.946 213.965 86.878C214.105 86.806 214.221 86.74 214.313 86.68C214.409 86.62 214.493 86.59 214.565 86.59C214.661 86.59 214.735 86.626 214.787 86.698L215.123 87.13ZM220.73 81.904V88H219.56V81.904H220.73ZM220.952 80.02C220.952 80.128 220.93 80.232 220.886 80.332C220.842 80.428 220.782 80.514 220.706 80.59C220.634 80.662 220.548 80.72 220.448 80.764C220.348 80.804 220.244 80.824 220.136 80.824C220.028 80.824 219.926 80.804 219.83 80.764C219.734 80.72 219.648 80.662 219.572 80.59C219.5 80.514 219.442 80.428 219.398 80.332C219.358 80.232 219.338 80.128 219.338 80.02C219.338 79.908 219.358 79.804 219.398 79.708C219.442 79.608 219.5 79.522 219.572 79.45C219.648 79.374 219.734 79.316 219.83 79.276C219.926 79.232 220.028 79.21 220.136 79.21C220.244 79.21 220.348 79.232 220.448 79.276C220.548 79.316 220.634 79.374 220.706 79.45C220.782 79.522 220.842 79.608 220.886 79.708C220.93 79.804 220.952 79.908 220.952 80.02ZM226.018 82.954C225.986 83.006 225.952 83.044 225.916 83.068C225.88 83.088 225.834 83.098 225.778 83.098C225.714 83.098 225.642 83.076 225.562 83.032C225.486 82.988 225.392 82.94 225.28 82.888C225.172 82.836 225.044 82.788 224.896 82.744C224.748 82.7 224.572 82.678 224.368 82.678C224.2 82.678 224.046 82.7 223.906 82.744C223.77 82.784 223.654 82.842 223.558 82.918C223.462 82.99 223.388 83.078 223.336 83.182C223.284 83.282 223.258 83.39 223.258 83.506C223.258 83.658 223.302 83.784 223.39 83.884C223.482 83.984 223.6 84.07 223.744 84.142C223.892 84.214 224.058 84.28 224.242 84.34C224.43 84.396 224.62 84.456 224.812 84.52C225.008 84.584 225.198 84.658 225.382 84.742C225.57 84.822 225.736 84.924 225.88 85.048C226.028 85.168 226.146 85.314 226.234 85.486C226.326 85.658 226.372 85.868 226.372 86.116C226.372 86.4 226.32 86.664 226.216 86.908C226.116 87.148 225.966 87.356 225.766 87.532C225.57 87.708 225.326 87.846 225.034 87.946C224.742 88.046 224.408 88.096 224.032 88.096C223.612 88.096 223.224 88.026 222.868 87.886C222.512 87.746 222.214 87.568 221.974 87.352L222.25 86.902C222.282 86.846 222.322 86.804 222.37 86.776C222.418 86.744 222.482 86.728 222.562 86.728C222.638 86.728 222.716 86.756 222.796 86.812C222.876 86.868 222.972 86.93 223.084 86.998C223.196 87.062 223.332 87.122 223.492 87.178C223.652 87.23 223.852 87.256 224.092 87.256C224.292 87.256 224.466 87.232 224.614 87.184C224.762 87.132 224.884 87.064 224.98 86.98C225.08 86.892 225.154 86.792 225.202 86.68C225.25 86.568 225.274 86.45 225.274 86.326C225.274 86.166 225.228 86.034 225.136 85.93C225.048 85.822 224.93 85.73 224.782 85.654C224.638 85.578 224.472 85.512 224.284 85.456C224.096 85.4 223.904 85.34 223.708 85.276C223.512 85.212 223.32 85.138 223.132 85.054C222.944 84.97 222.776 84.864 222.628 84.736C222.484 84.608 222.366 84.452 222.274 84.268C222.186 84.084 222.142 83.86 222.142 83.596C222.142 83.36 222.19 83.134 222.286 82.918C222.386 82.702 222.528 82.512 222.712 82.348C222.9 82.184 223.13 82.054 223.402 81.958C223.678 81.858 223.992 81.808 224.344 81.808C224.748 81.808 225.112 81.872 225.436 82C225.764 82.128 226.044 82.304 226.276 82.528L226.018 82.954ZM234.268 82.954C234.236 83.006 234.202 83.044 234.166 83.068C234.13 83.088 234.084 83.098 234.028 83.098C233.964 83.098 233.892 83.076 233.812 83.032C233.736 82.988 233.642 82.94 233.53 82.888C233.422 82.836 233.294 82.788 233.146 82.744C232.998 82.7 232.822 82.678 232.618 82.678C232.45 82.678 232.296 82.7 232.156 82.744C232.02 82.784 231.904 82.842 231.808 82.918C231.712 82.99 231.638 83.078 231.586 83.182C231.534 83.282 231.508 83.39 231.508 83.506C231.508 83.658 231.552 83.784 231.64 83.884C231.732 83.984 231.85 84.07 231.994 84.142C232.142 84.214 232.308 84.28 232.492 84.34C232.68 84.396 232.87 84.456 233.062 84.52C233.258 84.584 233.448 84.658 233.632 84.742C233.82 84.822 233.986 84.924 234.13 85.048C234.278 85.168 234.396 85.314 234.484 85.486C234.576 85.658 234.622 85.868 234.622 86.116C234.622 86.4 234.57 86.664 234.466 86.908C234.366 87.148 234.216 87.356 234.016 87.532C233.82 87.708 233.576 87.846 233.284 87.946C232.992 88.046 232.658 88.096 232.282 88.096C231.862 88.096 231.474 88.026 231.118 87.886C230.762 87.746 230.464 87.568 230.224 87.352L230.5 86.902C230.532 86.846 230.572 86.804 230.62 86.776C230.668 86.744 230.732 86.728 230.812 86.728C230.888 86.728 230.966 86.756 231.046 86.812C231.126 86.868 231.222 86.93 231.334 86.998C231.446 87.062 231.582 87.122 231.742 87.178C231.902 87.23 232.102 87.256 232.342 87.256C232.542 87.256 232.716 87.232 232.864 87.184C233.012 87.132 233.134 87.064 233.23 86.98C233.33 86.892 233.404 86.792 233.452 86.68C233.5 86.568 233.524 86.45 233.524 86.326C233.524 86.166 233.478 86.034 233.386 85.93C233.298 85.822 233.18 85.73 233.032 85.654C232.888 85.578 232.722 85.512 232.534 85.456C232.346 85.4 232.154 85.34 231.958 85.276C231.762 85.212 231.57 85.138 231.382 85.054C231.194 84.97 231.026 84.864 230.878 84.736C230.734 84.608 230.616 84.452 230.524 84.268C230.436 84.084 230.392 83.86 230.392 83.596C230.392 83.36 230.44 83.134 230.536 82.918C230.636 82.702 230.778 82.512 230.962 82.348C231.15 82.184 231.38 82.054 231.652 81.958C231.928 81.858 232.242 81.808 232.594 81.808C232.998 81.808 233.362 81.872 233.686 82C234.014 82.128 234.294 82.304 234.526 82.528L234.268 82.954ZM237.088 79.144V88H235.912V79.144H237.088ZM242.036 85.294C241.56 85.31 241.156 85.348 240.824 85.408C240.492 85.464 240.222 85.54 240.014 85.636C239.806 85.732 239.656 85.846 239.564 85.978C239.472 86.106 239.426 86.25 239.426 86.41C239.426 86.562 239.45 86.694 239.498 86.806C239.55 86.914 239.618 87.004 239.701 87.076C239.79 87.144 239.892 87.194 240.008 87.226C240.124 87.258 240.25 87.274 240.386 87.274C240.566 87.274 240.73 87.256 240.878 87.22C241.03 87.184 241.172 87.134 241.304 87.07C241.436 87.002 241.562 86.92 241.682 86.824C241.802 86.728 241.92 86.618 242.036 86.494V85.294ZM238.604 82.756C238.944 82.432 239.312 82.19 239.708 82.03C240.108 81.87 240.546 81.79 241.021 81.79C241.37 81.79 241.678 81.848 241.946 81.964C242.214 82.076 242.44 82.234 242.624 82.438C242.808 82.642 242.946 82.886 243.038 83.17C243.134 83.454 243.182 83.768 243.182 84.112V88H242.66C242.544 88 242.456 87.982 242.396 87.946C242.336 87.906 242.288 87.834 242.252 87.73L242.126 87.196C241.97 87.34 241.816 87.468 241.664 87.58C241.512 87.688 241.352 87.782 241.184 87.862C241.02 87.938 240.844 87.996 240.656 88.036C240.468 88.076 240.26 88.096 240.032 88.096C239.792 88.096 239.566 88.064 239.354 88C239.146 87.932 238.964 87.83 238.808 87.694C238.652 87.558 238.528 87.388 238.436 87.184C238.348 86.98 238.304 86.742 238.304 86.47C238.304 86.23 238.368 86 238.496 85.78C238.628 85.556 238.84 85.356 239.132 85.18C239.428 85.004 239.812 84.86 240.284 84.748C240.76 84.636 241.344 84.572 242.036 84.556V84.112C242.036 83.652 241.938 83.308 241.742 83.08C241.546 82.852 241.258 82.738 240.878 82.738C240.622 82.738 240.406 82.77 240.23 82.834C240.058 82.898 239.908 82.97 239.78 83.05C239.656 83.126 239.546 83.196 239.45 83.26C239.358 83.324 239.262 83.356 239.162 83.356C239.082 83.356 239.012 83.334 238.952 83.29C238.896 83.246 238.85 83.194 238.814 83.134L238.604 82.756ZM249.02 83.044C248.984 83.088 248.948 83.124 248.912 83.152C248.88 83.176 248.832 83.188 248.768 83.188C248.704 83.188 248.636 83.164 248.564 83.116C248.496 83.064 248.408 83.01 248.3 82.954C248.196 82.894 248.068 82.84 247.916 82.792C247.768 82.74 247.584 82.714 247.364 82.714C247.076 82.714 246.822 82.766 246.602 82.87C246.382 82.974 246.198 83.122 246.05 83.314C245.906 83.506 245.796 83.74 245.72 84.016C245.644 84.292 245.606 84.602 245.606 84.946C245.606 85.302 245.646 85.62 245.726 85.9C245.806 86.176 245.92 86.41 246.068 86.602C246.216 86.79 246.396 86.934 246.608 87.034C246.82 87.13 247.056 87.178 247.316 87.178C247.568 87.178 247.776 87.148 247.94 87.088C248.104 87.024 248.24 86.956 248.348 86.884C248.456 86.812 248.546 86.746 248.618 86.686C248.69 86.622 248.764 86.59 248.84 86.59C248.936 86.59 249.01 86.626 249.062 86.698L249.398 87.13C249.258 87.302 249.1 87.448 248.924 87.568C248.752 87.688 248.568 87.786 248.372 87.862C248.176 87.938 247.97 87.994 247.754 88.03C247.542 88.066 247.326 88.084 247.106 88.084C246.726 88.084 246.37 88.014 246.038 87.874C245.71 87.734 245.424 87.53 245.18 87.262C244.94 86.994 244.75 86.666 244.61 86.278C244.47 85.886 244.4 85.442 244.4 84.946C244.4 84.494 244.462 84.076 244.586 83.692C244.714 83.308 244.9 82.978 245.144 82.702C245.392 82.422 245.696 82.204 246.056 82.048C246.416 81.888 246.828 81.808 247.292 81.808C247.728 81.808 248.112 81.878 248.444 82.018C248.776 82.158 249.072 82.356 249.332 82.612L249.02 83.044ZM251.66 79.144V84.322H251.936C252.02 84.322 252.09 84.31 252.146 84.286C252.202 84.262 252.26 84.214 252.32 84.142L254.144 82.132C254.2 82.056 254.262 82 254.33 81.964C254.398 81.924 254.484 81.904 254.588 81.904H255.656L253.502 84.262C253.386 84.41 253.262 84.524 253.13 84.604C253.206 84.656 253.272 84.716 253.328 84.784C253.388 84.852 253.446 84.926 253.502 85.006L255.794 88H254.744C254.648 88 254.564 87.984 254.492 87.952C254.424 87.92 254.362 87.862 254.306 87.778L252.422 85.33C252.362 85.238 252.302 85.18 252.242 85.156C252.182 85.128 252.092 85.114 251.972 85.114H251.66V88H250.49V79.144H251.66ZM257.89 81.904V88H256.72V81.904H257.89ZM258.112 80.02C258.112 80.128 258.09 80.232 258.046 80.332C258.002 80.428 257.942 80.514 257.866 80.59C257.794 80.662 257.708 80.72 257.608 80.764C257.508 80.804 257.404 80.824 257.296 80.824C257.188 80.824 257.086 80.804 256.99 80.764C256.894 80.72 256.808 80.662 256.732 80.59C256.66 80.514 256.602 80.428 256.558 80.332C256.518 80.232 256.498 80.128 256.498 80.02C256.498 79.908 256.518 79.804 256.558 79.708C256.602 79.608 256.66 79.522 256.732 79.45C256.808 79.374 256.894 79.316 256.99 79.276C257.086 79.232 257.188 79.21 257.296 79.21C257.404 79.21 257.508 79.232 257.608 79.276C257.708 79.316 257.794 79.374 257.866 79.45C257.942 79.522 258.002 79.608 258.046 79.708C258.09 79.804 258.112 79.908 258.112 80.02ZM260.682 82.75C260.814 82.61 260.952 82.482 261.096 82.366C261.24 82.25 261.392 82.152 261.552 82.072C261.716 81.988 261.89 81.924 262.074 81.88C262.262 81.832 262.462 81.808 262.674 81.808C263.01 81.808 263.304 81.864 263.556 81.976C263.812 82.088 264.026 82.246 264.198 82.45C264.37 82.65 264.5 82.892 264.588 83.176C264.676 83.46 264.72 83.774 264.72 84.118V88H263.544V84.118C263.544 83.682 263.444 83.344 263.244 83.104C263.044 82.86 262.738 82.738 262.326 82.738C262.026 82.738 261.744 82.81 261.48 82.954C261.22 83.094 260.978 83.286 260.754 83.53V88H259.584V81.904H260.286C260.45 81.904 260.552 81.982 260.592 82.138L260.682 82.75ZM268.441 84.958C268.649 84.958 268.831 84.93 268.987 84.874C269.147 84.818 269.279 84.74 269.383 84.64C269.491 84.536 269.571 84.412 269.623 84.268C269.679 84.124 269.707 83.966 269.707 83.794C269.707 83.442 269.599 83.162 269.383 82.954C269.171 82.742 268.857 82.636 268.441 82.636C268.029 82.636 267.715 82.742 267.499 82.954C267.287 83.162 267.181 83.442 267.181 83.794C267.181 83.966 267.207 84.124 267.259 84.268C267.315 84.408 267.395 84.53 267.499 84.634C267.607 84.734 267.739 84.814 267.895 84.874C268.055 84.93 268.237 84.958 268.441 84.958ZM270.307 88.318C270.307 88.174 270.267 88.06 270.187 87.976C270.107 87.888 269.997 87.82 269.857 87.772C269.721 87.72 269.561 87.684 269.377 87.664C269.193 87.64 268.999 87.622 268.795 87.61C268.595 87.598 268.389 87.588 268.177 87.58C267.965 87.568 267.761 87.548 267.565 87.52C267.357 87.624 267.185 87.75 267.049 87.898C266.917 88.046 266.851 88.22 266.851 88.42C266.851 88.548 266.883 88.668 266.947 88.78C267.015 88.892 267.117 88.988 267.253 89.068C267.393 89.152 267.567 89.216 267.775 89.26C267.987 89.308 268.239 89.332 268.531 89.332C268.819 89.332 269.073 89.306 269.293 89.254C269.513 89.206 269.697 89.136 269.845 89.044C269.997 88.956 270.111 88.85 270.187 88.726C270.267 88.602 270.307 88.466 270.307 88.318ZM271.495 82.132V82.57C271.495 82.714 271.405 82.804 271.225 82.84L270.571 82.936C270.627 83.06 270.671 83.192 270.703 83.332C270.735 83.468 270.751 83.612 270.751 83.764C270.751 84.064 270.693 84.336 270.577 84.58C270.461 84.82 270.301 85.026 270.097 85.198C269.893 85.37 269.649 85.502 269.365 85.594C269.085 85.686 268.777 85.732 268.441 85.732C268.165 85.732 267.907 85.702 267.667 85.642C267.547 85.714 267.455 85.794 267.391 85.882C267.331 85.966 267.301 86.05 267.301 86.134C267.301 86.274 267.359 86.378 267.475 86.446C267.595 86.514 267.749 86.564 267.937 86.596C268.129 86.624 268.347 86.642 268.591 86.65C268.839 86.658 269.089 86.672 269.341 86.692C269.597 86.708 269.847 86.74 270.091 86.788C270.339 86.832 270.557 86.906 270.745 87.01C270.937 87.11 271.091 87.25 271.207 87.43C271.327 87.606 271.387 87.836 271.387 88.12C271.387 88.384 271.321 88.64 271.189 88.888C271.061 89.136 270.873 89.356 270.625 89.548C270.377 89.74 270.075 89.894 269.719 90.01C269.363 90.126 268.959 90.184 268.507 90.184C268.055 90.184 267.661 90.14 267.325 90.052C266.993 89.964 266.715 89.846 266.491 89.698C266.271 89.55 266.105 89.378 265.993 89.182C265.885 88.986 265.831 88.782 265.831 88.57C265.831 88.274 265.923 88.024 266.107 87.82C266.291 87.612 266.545 87.45 266.869 87.334C266.693 87.254 266.553 87.146 266.449 87.01C266.345 86.87 266.293 86.686 266.293 86.458C266.293 86.37 266.309 86.28 266.341 86.188C266.373 86.092 266.421 85.998 266.485 85.906C266.553 85.81 266.635 85.72 266.731 85.636C266.831 85.552 266.945 85.476 267.073 85.408C266.773 85.24 266.537 85.018 266.365 84.742C266.193 84.462 266.107 84.136 266.107 83.764C266.107 83.464 266.165 83.194 266.281 82.954C266.397 82.714 266.557 82.508 266.761 82.336C266.969 82.164 267.215 82.032 267.499 81.94C267.787 81.848 268.101 81.802 268.441 81.802C268.969 81.802 269.423 81.912 269.803 82.132H271.495Z" fill="#EEC1C1"/>
<path d="M0.954059 0.497465C0.717409 0.360509 0.546122 0.474571 0.571494 0.752241L0.984884 5.27709C1.01026 5.55476 1.22268 5.89089 1.45933 6.02785C1.69599 6.16481 1.86728 6.05075 1.84191 5.77308L1.47444 1.75099L4.90251 3.73493C5.13917 3.8719 5.31046 3.75783 5.28508 3.48016C5.25973 3.2025 5.0473 2.86637 4.81064 2.72941L0.954059 0.497465ZM126.421 75.5219C100.28 77.0864 79.3343 74.7584 59.7634 63.884C40.2307 53.0308 22.0012 33.6243 1.27052 0.820084L0.729474 1.18038C21.5847 34.1816 40.0424 53.8808 59.873 64.8996C79.6655 75.8971 100.759 78.2074 126.91 76.6423L126.421 75.5219Z" fill="#EEC1C1"/>
</svg>
